<svg width="68" height="68" viewBox="0 0 68 68" fill="none" xmlns="http://www.w3.org/2000/svg">
<g clip-path="url(#clip0_1423_71)">
<path d="M52.0625 0H15.9375C7.13546 0 0 7.13546 0 15.9375V52.0625C0 60.8645 7.13546 68 15.9375 68H52.0625C60.8645 68 68 60.8645 68 52.0625V15.9375C68 7.13546 60.8645 0 52.0625 0Z" fill="#F0DB4F"/>
<path d="M17.8801 56.8241L23.0837 53.6749C24.0878 55.4548 25.001 56.9609 27.1916 56.9609C29.2914 56.9609 30.6153 56.1396 30.6153 52.9447V31.2171H37.0057V53.035C37.0057 59.6535 33.126 62.6663 27.4655 62.6663C22.3535 62.6663 19.3862 60.0188 17.8799 56.8236M40.4766 56.1393L45.6797 53.1269C47.0495 55.3637 48.8297 57.0069 51.979 57.0069C54.627 57.0069 56.3153 55.683 56.3153 53.8571C56.3153 51.6662 54.5808 50.89 51.6594 49.6124L50.0622 48.9273C45.4518 46.9649 42.3934 44.4999 42.3934 39.2963C42.3934 34.5034 46.0452 30.8516 51.7511 30.8516C55.8135 30.8516 58.7349 32.2668 60.8344 35.964L55.8589 39.1593C54.7632 37.1965 53.577 36.4207 51.7511 36.4207C49.8795 36.4207 48.6926 37.6075 48.6926 39.1593C48.6926 41.0763 49.8795 41.8524 52.6181 43.0395L54.2155 43.724C59.6473 46.0522 62.7057 48.4253 62.7057 53.7657C62.7057 59.5175 58.1869 62.6668 52.116 62.6668C46.1822 62.6668 42.3479 59.8368 40.4766 56.1393Z" fill="#323330"/>
</g>
<defs>
<clipPath id="clip0_1423_71">
<rect width="68" height="68" fill="white"/>
</clipPath>
</defs>
</svg>
