<svg width="2435" height="1050" viewBox="0 0 2435 1050" fill="none" xmlns="http://www.w3.org/2000/svg">
<mask id="mask0_814_1346" style="mask-type:alpha" maskUnits="userSpaceOnUse" x="0" y="0" width="2435" height="1050">
<rect width="2435" height="1050" fill="#C4C4C4" fill-opacity="0.58"/>
</mask>
<g mask="url(#mask0_814_1346)">
<rect width="182.948" height="53.738" transform="matrix(0.93697 -0.349411 0.330858 0.94368 761.775 929.283)" fill="#414141" fill-opacity="0.2"/>
<rect width="182.948" height="53.738" transform="matrix(0.93697 -0.349411 0.330858 0.94368 951.888 858.387)" fill="#00C1B6" fill-opacity="0.35"/>
<rect width="182.948" height="53.738" transform="matrix(0.93697 -0.349411 0.330858 0.94368 1142 787.491)" fill="#414141" fill-opacity="0.2"/>
<rect width="182.948" height="53.738" transform="matrix(0.93697 -0.349411 0.330858 0.94368 1332.11 716.595)" fill="#414141" fill-opacity="0.2"/>
<rect width="182.948" height="53.738" transform="matrix(0.93697 -0.349411 0.330858 0.94368 1522.23 645.699)" fill="#00C1B6" fill-opacity="0.35"/>
<rect width="182.948" height="53.738" transform="matrix(0.93697 -0.349411 0.330858 0.94368 700.073 1029.35)" fill="#414141" fill-opacity="0.2"/>
<rect width="182.948" height="53.738" transform="matrix(0.93697 -0.349411 0.330858 0.94368 890.186 958.458)" fill="#414141" fill-opacity="0.2"/>
<rect width="182.948" height="53.738" transform="matrix(0.93697 -0.349411 0.330858 0.94368 1080.3 887.562)" fill="#414141" fill-opacity="0.2"/>
<rect width="182.948" height="53.738" transform="matrix(0.93697 -0.349411 0.330858 0.94368 1270.41 816.666)" fill="#00C1B6" fill-opacity="0.35"/>
<rect width="182.948" height="53.738" transform="matrix(0.93697 -0.349411 0.330858 0.94368 1460.52 745.77)" fill="#414141" fill-opacity="0.2"/>
<rect width="182.948" height="53.738" transform="matrix(0.93697 -0.349411 0.330858 0.94368 828.484 1058.53)" fill="#414141" fill-opacity="0.2"/>
<rect width="182.948" height="53.738" transform="matrix(0.93697 -0.349411 0.330858 0.94368 1018.6 987.632)" fill="#414141" fill-opacity="0.2"/>
<rect width="182.948" height="53.738" transform="matrix(0.93697 -0.349411 0.330858 0.94368 1208.71 916.736)" fill="#414141" fill-opacity="0.2"/>
<rect width="182.948" height="53.738" transform="matrix(0.93697 -0.349411 0.330858 0.94368 1398.82 845.84)" fill="#414141" fill-opacity="0.2"/>
<rect width="182.948" height="53.738" transform="matrix(0.93697 -0.349411 0.330858 0.94368 956.896 1087.7)" fill="#414141" fill-opacity="0.2"/>
<rect width="182.948" height="53.738" transform="matrix(0.93697 -0.349411 0.330858 0.94368 1147.01 1016.81)" fill="#00C1B6" fill-opacity="0.35"/>
<rect width="182.948" height="53.738" transform="matrix(0.93697 -0.349411 0.330858 0.94368 1337.12 945.911)" fill="#414141" fill-opacity="0.2"/>
<rect width="182.948" height="53.738" transform="matrix(0.93697 -0.349411 0.330858 0.94368 1275.42 1045.98)" fill="#414141" fill-opacity="0.2"/>
<rect width="182.948" height="53.738" transform="matrix(0.93697 -0.349411 0.330858 0.94368 1712.79 574.635)" fill="#414141" fill-opacity="0.2"/>
<rect width="182.948" height="53.738" transform="matrix(0.93697 -0.349411 0.330858 0.94368 1902.9 503.739)" fill="#414141" fill-opacity="0.2"/>
<rect width="182.948" height="53.738" transform="matrix(0.93697 -0.349411 0.330858 0.94368 2093.01 432.843)" fill="#414141" fill-opacity="0.2"/>
<rect width="182.948" height="53.738" transform="matrix(0.93697 -0.349411 0.330858 0.94368 2283.13 361.947)" fill="#414141" fill-opacity="0.2"/>
<rect width="182.948" height="53.738" transform="matrix(0.93697 -0.349411 0.330858 0.94368 1651.09 674.705)" fill="#414141" fill-opacity="0.2"/>
<rect width="182.948" height="53.738" transform="matrix(0.93697 -0.349411 0.330858 0.94368 1841.2 603.809)" fill="#414141" fill-opacity="0.2"/>
<rect width="182.948" height="53.738" transform="matrix(0.93697 -0.349411 0.330858 0.94368 2031.31 532.913)" fill="#414141" fill-opacity="0.2"/>
<rect width="182.948" height="53.738" transform="matrix(0.93697 -0.349411 0.330858 0.94368 2221.42 462.017)" fill="#414141" fill-opacity="0.2"/>
<rect width="182.948" height="53.738" transform="matrix(0.93697 -0.349411 0.330858 0.94368 2411.54 391.121)" fill="#414141" fill-opacity="0.2"/>
<rect width="182.948" height="53.738" transform="matrix(0.93697 -0.349411 0.330858 0.94368 1589.39 774.776)" fill="#414141" fill-opacity="0.2"/>
<rect width="182.948" height="53.738" transform="matrix(0.93697 -0.349411 0.330858 0.94368 1779.5 703.88)" fill="#414141" fill-opacity="0.2"/>
<rect width="182.948" height="53.738" transform="matrix(0.93697 -0.349411 0.330858 0.94368 1969.61 632.984)" fill="#414141" fill-opacity="0.2"/>
<rect width="182.948" height="53.738" transform="matrix(0.93697 -0.349411 0.330858 0.94368 2159.72 562.088)" fill="#414141" fill-opacity="0.2"/>
<rect width="182.948" height="53.738" transform="matrix(0.93697 -0.349411 0.330858 0.94368 2349.84 491.192)" fill="#414141" fill-opacity="0.2"/>
<rect width="182.948" height="53.738" transform="matrix(0.93697 -0.349411 0.330858 0.94368 1527.68 874.847)" fill="#414141" fill-opacity="0.2"/>
<rect width="182.948" height="53.738" transform="matrix(0.93697 -0.349411 0.330858 0.94368 1717.8 803.951)" fill="#414141" fill-opacity="0.2"/>
<rect width="182.948" height="53.738" transform="matrix(0.93697 -0.349411 0.330858 0.94368 1907.91 733.055)" fill="#414141" fill-opacity="0.2"/>
<rect width="182.948" height="53.738" transform="matrix(0.93697 -0.349411 0.330858 0.94368 2098.02 662.159)" fill="#414141" fill-opacity="0.2"/>
<rect width="182.948" height="53.738" transform="matrix(0.93697 -0.349411 0.330858 0.94368 2288.13 591.263)" fill="#414141" fill-opacity="0.2"/>
<rect width="182.948" height="53.738" transform="matrix(0.93697 -0.349411 0.330858 0.94368 1465.98 974.918)" fill="#414141" fill-opacity="0.2"/>
<rect width="182.948" height="53.738" transform="matrix(0.93697 -0.349411 0.330858 0.94368 1656.09 904.022)" fill="#414141" fill-opacity="0.2"/>
<rect width="182.948" height="53.738" transform="matrix(0.93697 -0.349411 0.330858 0.94368 1846.21 833.126)" fill="#414141" fill-opacity="0.2"/>
<rect width="182.948" height="53.738" transform="matrix(0.93697 -0.349411 0.330858 0.94368 2036.32 762.23)" fill="#414141" fill-opacity="0.2"/>
<rect width="182.948" height="53.738" transform="matrix(0.93697 -0.349411 0.330858 0.94368 2226.43 691.334)" fill="#414141" fill-opacity="0.2"/>
<rect width="182.948" height="53.738" transform="matrix(0.93697 -0.349411 0.330858 0.94368 367.304 1076.71)" fill="#414141" fill-opacity="0.2"/>
<rect width="182.948" height="53.738" transform="matrix(0.93697 -0.349411 0.330858 0.94368 557.417 1005.82)" fill="#414141" fill-opacity="0.2"/>
<rect width="182.948" height="53.738" transform="matrix(0.93697 -0.349411 0.330858 0.94368 495.715 1105.89)" fill="#414141" fill-opacity="0.2"/>
<rect width="182.948" height="53.738" transform="matrix(0.93697 -0.349411 0.330858 0.94368 506.577 641.868)" fill="#414141" fill-opacity="0.2"/>
<rect width="182.948" height="53.738" transform="matrix(0.93697 -0.349411 0.330858 0.94368 696.689 570.972)" fill="#414141" fill-opacity="0.2"/>
<rect width="182.948" height="53.738" transform="matrix(0.93697 -0.349411 0.330858 0.94368 886.802 500.076)" fill="#414141" fill-opacity="0.2"/>
<rect width="182.948" height="53.738" transform="matrix(0.93697 -0.349411 0.330858 0.94368 1076.91 429.18)" fill="#414141" fill-opacity="0.2"/>
<rect width="182.948" height="53.738" transform="matrix(0.93697 -0.349411 0.330858 0.94368 1267.03 358.283)" fill="#414141" fill-opacity="0.2"/>
<rect width="182.948" height="53.738" transform="matrix(0.93697 -0.349411 0.330858 0.94368 444.875 741.938)" fill="#414141" fill-opacity="0.2"/>
<rect width="182.948" height="53.738" transform="matrix(0.93697 -0.349411 0.330858 0.94368 634.988 671.042)" fill="#414141" fill-opacity="0.2"/>
<rect width="182.948" height="53.738" transform="matrix(0.93697 -0.349411 0.330858 0.94368 825.1 600.146)" fill="#414141" fill-opacity="0.2"/>
<rect width="182.948" height="53.738" transform="matrix(0.93697 -0.349411 0.330858 0.94368 1015.21 529.25)" fill="#414141" fill-opacity="0.2"/>
<rect width="182.948" height="53.738" transform="matrix(0.93697 -0.349411 0.330858 0.94368 1205.33 458.354)" fill="#414141" fill-opacity="0.2"/>
<rect width="182.948" height="53.738" transform="matrix(0.93697 -0.349411 0.330858 0.94368 383.173 842.009)" fill="#414141" fill-opacity="0.2"/>
<rect width="182.948" height="53.738" transform="matrix(0.93697 -0.349411 0.330858 0.94368 573.286 771.113)" fill="#414141" fill-opacity="0.2"/>
<rect width="182.948" height="53.738" transform="matrix(0.93697 -0.349411 0.330858 0.94368 763.398 700.217)" fill="#414141" fill-opacity="0.2"/>
<rect width="182.948" height="53.738" transform="matrix(0.93697 -0.349411 0.330858 0.94368 953.511 629.321)" fill="#414141" fill-opacity="0.2"/>
<rect width="182.948" height="53.738" transform="matrix(0.93697 -0.349411 0.330858 0.94368 1143.62 558.425)" fill="#414141" fill-opacity="0.2"/>
<rect width="182.948" height="53.738" transform="matrix(0.93697 -0.349411 0.330858 0.94368 321.472 942.08)" fill="#414141" fill-opacity="0.2"/>
<rect width="182.948" height="53.738" transform="matrix(0.93697 -0.349411 0.330858 0.94368 511.584 871.184)" fill="#414141" fill-opacity="0.2"/>
<rect width="182.948" height="53.738" transform="matrix(0.93697 -0.349411 0.330858 0.94368 701.697 800.288)" fill="#414141" fill-opacity="0.2"/>
<rect width="182.948" height="53.738" transform="matrix(0.93697 -0.349411 0.330858 0.94368 891.809 729.392)" fill="#414141" fill-opacity="0.2"/>
<rect width="182.948" height="53.738" transform="matrix(0.93697 -0.349411 0.330858 0.94368 1081.92 658.496)" fill="#414141" fill-opacity="0.2"/>
<rect width="182.948" height="53.738" transform="matrix(0.93697 -0.349411 0.330858 0.94368 259.77 1042.15)" fill="#414141" fill-opacity="0.2"/>
<rect width="182.948" height="53.738" transform="matrix(0.93697 -0.349411 0.330858 0.94368 449.882 971.255)" fill="#414141" fill-opacity="0.2"/>
<rect width="182.948" height="53.738" transform="matrix(0.93697 -0.349411 0.330858 0.94368 639.995 900.359)" fill="#414141" fill-opacity="0.2"/>
<rect width="182.948" height="53.738" transform="matrix(0.93697 -0.349411 0.330858 0.94368 830.107 829.463)" fill="#414141" fill-opacity="0.2"/>
<rect width="182.948" height="53.738" transform="matrix(0.93697 -0.349411 0.330858 0.94368 1020.22 758.567)" fill="#414141" fill-opacity="0.2"/>
<rect width="182.948" height="53.738" transform="matrix(0.93697 -0.349411 0.330858 0.94368 1457.59 287.219)" fill="#414141" fill-opacity="0.2"/>
<rect width="182.948" height="53.738" transform="matrix(0.93697 -0.349411 0.330858 0.94368 1647.7 216.323)" fill="#414141" fill-opacity="0.2"/>
<rect width="182.948" height="53.738" transform="matrix(0.93697 -0.349411 0.330858 0.94368 1837.82 145.427)" fill="#414141" fill-opacity="0.2"/>
<rect width="182.948" height="53.738" transform="matrix(0.93697 -0.349411 0.330858 0.94368 2027.93 74.5314)" fill="#414141" fill-opacity="0.2"/>
<rect width="182.948" height="53.738" transform="matrix(0.93697 -0.349411 0.330858 0.94368 2218.04 3.63538)" fill="#414141" fill-opacity="0.2"/>
<rect width="182.948" height="53.738" transform="matrix(0.93697 -0.349411 0.330858 0.94368 1395.89 387.29)" fill="#414141" fill-opacity="0.2"/>
<rect width="182.948" height="53.738" transform="matrix(0.93697 -0.349411 0.330858 0.94368 1586 316.394)" fill="#414141" fill-opacity="0.2"/>
<rect width="182.948" height="53.738" transform="matrix(0.93697 -0.349411 0.330858 0.94368 1776.11 245.498)" fill="#414141" fill-opacity="0.2"/>
<rect width="182.948" height="53.738" transform="matrix(0.93697 -0.349411 0.330858 0.94368 1966.23 174.602)" fill="#414141" fill-opacity="0.2"/>
<rect width="182.948" height="53.738" transform="matrix(0.93697 -0.349411 0.330858 0.94368 2156.34 103.706)" fill="#414141" fill-opacity="0.2"/>
<rect width="182.948" height="53.738" transform="matrix(0.93697 -0.349411 0.330858 0.94368 1334.19 487.361)" fill="#00C1B6" fill-opacity="0.35"/>
<rect width="182.948" height="53.738" transform="matrix(0.93697 -0.349411 0.330858 0.94368 1524.3 416.465)" fill="#414141" fill-opacity="0.2"/>
<rect width="182.948" height="53.738" transform="matrix(0.93697 -0.349411 0.330858 0.94368 1714.41 345.569)" fill="#414141" fill-opacity="0.2"/>
<rect width="182.948" height="53.738" transform="matrix(0.93697 -0.349411 0.330858 0.94368 1904.52 274.673)" fill="#414141" fill-opacity="0.2"/>
<rect width="182.948" height="53.738" transform="matrix(0.93697 -0.349411 0.330858 0.94368 2094.64 203.777)" fill="#414141" fill-opacity="0.2"/>
<rect width="182.948" height="53.738" transform="matrix(0.93697 -0.349411 0.330858 0.94368 1272.48 587.432)" fill="#414141" fill-opacity="0.2"/>
<rect width="182.948" height="53.738" transform="matrix(0.93697 -0.349411 0.330858 0.94368 1462.6 516.536)" fill="#414141" fill-opacity="0.2"/>
<rect width="182.948" height="53.738" transform="matrix(0.93697 -0.349411 0.330858 0.94368 1652.71 445.64)" fill="#00C1B6" fill-opacity="0.35"/>
<rect width="182.948" height="53.738" transform="matrix(0.93697 -0.349411 0.330858 0.94368 1842.82 374.744)" fill="#414141" fill-opacity="0.2"/>
<rect width="182.948" height="53.738" transform="matrix(0.93697 -0.349411 0.330858 0.94368 2032.94 303.848)" fill="#414141" fill-opacity="0.2"/>
<rect width="182.948" height="53.738" transform="matrix(0.93697 -0.349411 0.330858 0.94368 1210.78 687.503)" fill="#414141" fill-opacity="0.2"/>
<rect width="182.948" height="53.738" transform="matrix(0.93697 -0.349411 0.330858 0.94368 1400.9 616.606)" fill="#414141" fill-opacity="0.2"/>
<rect width="182.948" height="53.738" transform="matrix(0.93697 -0.349411 0.330858 0.94368 1591.01 545.71)" fill="#414141" fill-opacity="0.2"/>
<rect width="182.948" height="53.738" transform="matrix(0.93697 -0.349411 0.330858 0.94368 1781.12 474.815)" fill="#414141" fill-opacity="0.2"/>
<rect width="182.948" height="53.738" transform="matrix(0.93697 -0.349411 0.330858 0.94368 1971.23 403.918)" fill="#414141" fill-opacity="0.2"/>
<rect width="182.948" height="53.738" transform="matrix(0.93697 -0.349411 0.330858 0.94368 -63.3782 854.715)" fill="#414141" fill-opacity="0.2"/>
<rect width="182.948" height="53.738" transform="matrix(0.93697 -0.349411 0.330858 0.94368 126.734 783.819)" fill="#414141" fill-opacity="0.2"/>
<rect width="182.948" height="53.738" transform="matrix(0.93697 -0.349411 0.330858 0.94368 316.847 712.923)" fill="#414141" fill-opacity="0.2"/>
<rect width="182.948" height="53.738" transform="matrix(0.93697 -0.349411 0.330858 0.94368 -125.08 954.786)" fill="#414141" fill-opacity="0.2"/>
<rect width="182.948" height="53.738" transform="matrix(0.93697 -0.349411 0.330858 0.94368 65.0327 883.89)" fill="#414141" fill-opacity="0.2"/>
<rect width="182.948" height="53.738" transform="matrix(0.93697 -0.349411 0.330858 0.94368 255.145 812.994)" fill="#414141" fill-opacity="0.2"/>
<rect width="182.948" height="53.738" transform="matrix(0.93697 -0.349411 0.330858 0.94368 -186.781 1054.86)" fill="#414141" fill-opacity="0.2"/>
<rect width="182.948" height="53.738" transform="matrix(0.93697 -0.349411 0.330858 0.94368 3.33105 983.961)" fill="#414141" fill-opacity="0.2"/>
<rect width="182.948" height="53.738" transform="matrix(0.93697 -0.349411 0.330858 0.94368 193.444 913.064)" fill="#414141" fill-opacity="0.2"/>
<rect width="182.948" height="53.738" transform="matrix(0.93697 -0.349411 0.330858 0.94368 -58.3711 1084.03)" fill="#414141" fill-opacity="0.2"/>
<rect width="182.948" height="53.738" transform="matrix(0.93697 -0.349411 0.330858 0.94368 131.742 1013.14)" fill="#414141" fill-opacity="0.2"/>
<rect width="182.948" height="53.738" transform="matrix(0.93697 -0.349411 0.330858 0.94368 70.0398 1113.21)" fill="#414141" fill-opacity="0.2"/>
<rect width="182.948" height="53.738" transform="matrix(0.93697 -0.349411 0.330858 0.94368 2356.04 29.0078)" fill="#414141" fill-opacity="0.2"/>
<rect width="182.948" height="53.738" transform="matrix(0.93697 -0.349411 0.330858 0.94368 2294.34 129.079)" fill="#414141" fill-opacity="0.2"/>
<rect width="182.948" height="53.738" transform="matrix(0.93697 -0.349411 0.330858 0.94368 2232.64 229.15)" fill="#414141" fill-opacity="0.2"/>
<rect width="182.948" height="53.738" transform="matrix(0.93697 -0.349411 0.330858 0.94368 2422.75 158.253)" fill="#414141" fill-opacity="0.2"/>
<rect width="182.948" height="53.738" transform="matrix(0.93697 -0.349411 0.330858 0.94368 2170.93 329.22)" fill="#414141" fill-opacity="0.2"/>
<rect width="182.948" height="53.738" transform="matrix(0.93697 -0.349411 0.330858 0.94368 2361.05 258.324)" fill="#414141" fill-opacity="0.2"/>
</g>
</svg>
