<svg width="2462" height="793" viewBox="0 0 2462 793" fill="none" xmlns="http://www.w3.org/2000/svg">
<path fill-rule="evenodd" clip-rule="evenodd" d="M779.517 784.734L772 638.996L807.622 644.941C818.866 646.817 831.533 647.815 845.709 647.815C872.287 647.815 880.441 640.887 882.98 637.17C888.446 629.172 893.829 611.045 893.829 576.744V0H1062.91V569.387C1062.91 605.211 1059.67 636.732 1052.58 663.354C1045.58 690.953 1033.27 715.218 1015.21 735.371C996.792 756.523 972.69 771.239 944.271 780.2C916.571 789.019 883.591 793 846.117 793C829.853 793 814.925 791.825 801.648 789.166L779.517 784.734ZM935.509 752.492C959.727 744.862 979.048 732.737 993.47 716.116C1008.16 699.767 1018.51 679.74 1024.49 656.035C1030.75 632.602 1033.88 603.719 1033.88 569.387V29.0643H922.855V576.744C922.855 612.438 917.549 638.051 906.936 653.582C896.323 669.114 875.914 676.879 845.709 676.879C841.052 676.879 836.505 676.781 832.068 676.584C821.729 676.126 811.99 675.135 802.85 673.609L807.34 760.666C818.225 762.846 831.151 763.936 846.117 763.936C881.765 763.936 911.562 760.121 935.509 752.492ZM1128.53 658.532V0H1379.2C1410.19 0 1437.55 1.39334 1461.1 4.30316C1485.43 7.27533 1508.65 12.7927 1530.69 20.9329C1553.84 29.1089 1573.94 40.7665 1589.82 56.6284C1605.97 72.48 1617.83 92.481 1626.07 115.549C1634.87 139.161 1638.85 166.001 1638.85 195.412C1638.85 239.599 1628.8 278.72 1606.67 310.829C1591.24 333.213 1570.78 350.974 1546.08 364.474C1557.46 382.717 1569.59 405.444 1582.47 432.049L1582.48 432.076L1691.56 658.532H1505.68L1428.33 485.047C1409.53 445.072 1396.28 417.676 1388.25 401.942C1381.12 401.889 1371.63 401.859 1359.61 401.859H1359.48L1295.98 401.299V658.532H1128.53ZM1266.95 371.977L1359.61 372.794C1385.73 372.794 1401.11 372.931 1405.73 373.203C1411.99 383.557 1428.32 416.8 1454.71 472.93L1524.51 629.468H1645.33L1556.35 444.729C1542.67 416.477 1530.39 393.82 1519.5 376.758C1513.06 366.668 1507.11 358.535 1501.65 352.359C1511.61 348.897 1520.88 344.917 1529.46 340.416C1583.04 312.324 1609.82 263.989 1609.82 195.412C1609.82 168.436 1606.15 145.14 1598.8 125.521C1591.73 105.63 1581.93 89.5542 1569.41 77.2928C1557.17 65.0313 1540.98 55.3583 1520.84 48.2739C1500.97 40.917 1479.88 35.8762 1457.57 33.1514C1435.53 30.4266 1409.41 29.0643 1379.2 29.0643H1157.56V629.468H1266.95V371.977ZM1462.08 247.688C1451.42 256.254 1429.32 263.622 1389 263.622H1327.88C1315.35 263.528 1304.71 263.451 1295.98 263.389V140.28H1393.89C1430.03 140.28 1451.31 146.956 1462.77 155.433C1472.24 162.447 1479.16 174.192 1479.16 197.047C1479.16 225.385 1471.48 239.875 1462.08 247.688ZM1266.95 292.277C1271.03 292.277 1291.31 292.414 1327.77 292.686H1389C1431.45 292.686 1461.92 285.193 1480.43 270.207C1498.93 254.948 1508.19 230.561 1508.19 197.047C1508.19 167.619 1498.8 145.957 1480.02 132.061C1461.24 118.164 1432.54 111.216 1393.89 111.216H1266.95V292.277Z" fill="#CCCCCC"/>
<path d="M0.578125 482L76.375 275.844H117.859L192.531 482H153.438L133.047 423.781H60.9062L40.375 482H0.578125ZM70.4688 395.375H123.344C106.469 341.281 97.7969 313.344 97.3281 311.562L70.4688 395.375ZM282.182 482V275.984H322.682C329.995 287.422 344.854 310.484 367.261 345.172C389.667 379.859 403.307 400.953 408.182 408.453C409.589 410.609 411.979 414.266 415.354 419.422C418.823 424.484 421.261 428.094 422.667 430.25C422.011 398.094 421.682 381.406 421.682 380.188V275.984H456.417V482H415.354L322.401 337.156L315.651 326.047C316.401 350.797 316.776 368.188 316.776 378.219V482H282.182ZM608.084 451.484H635.365C658.896 451.484 676.802 445.344 689.084 433.062C701.365 420.688 707.506 402.688 707.506 379.062C707.506 353.75 701.177 335.375 688.521 323.938C675.865 312.406 656.787 306.641 631.287 306.641H608.084V451.484ZM569.974 482V275.984H629.599C647.599 275.984 663.724 278.047 677.974 282.172C692.224 286.297 704.459 292.531 714.677 300.875C724.99 309.125 732.865 319.812 738.302 332.938C743.834 345.969 746.599 361.062 746.599 378.219C746.599 411.5 736.568 437.141 716.506 455.141C696.443 473.047 668.646 482 633.115 482H569.974ZM850.876 482V275.422H927.235C937.641 275.422 946.641 275.891 954.235 276.828C961.922 277.766 969.188 279.5 976.032 282.031C982.969 284.469 988.547 287.797 992.766 292.016C997.079 296.234 1000.45 301.766 1002.89 308.609C1005.42 315.359 1006.69 323.375 1006.69 332.656C1006.69 360.031 994.266 378.031 969.422 386.656C974.485 392.375 980.766 402.969 988.266 418.438L1018.92 482H977.297L953.251 428.141C944.157 408.828 938.532 397.391 936.376 393.828C934.782 393.734 929.485 393.688 920.485 393.688L888.563 393.406V482H850.876ZM930.61 366.125C945.235 366.125 955.735 363.547 962.11 358.391C968.485 353.141 971.672 344.75 971.672 333.219C971.672 323.094 968.438 315.641 961.969 310.859C955.501 306.078 945.61 303.688 932.297 303.688H888.563V365.984C889.969 365.984 896.954 366.031 909.516 366.125C922.079 366.125 929.11 366.125 930.61 366.125ZM1115.32 482V275.984H1240.2L1238.65 306.219H1153.43V359.375H1234.43V389.609H1153.43V451.625H1241.75L1240.48 482H1115.32ZM1491.78 482V275.984H1616.66L1615.11 306.219H1529.89V359.375H1610.89V389.609H1529.89V451.625H1618.2L1616.94 482H1491.78ZM1722.9 482V275.984H1761.01V451.625H1847.21L1846.09 482H1722.9ZM1942.77 482V275.984H1980.88V451.625H2067.08L2065.96 482H1942.77ZM2163.63 482V275.984H2201.74V482H2163.63ZM2374.22 484.812C2349.37 484.812 2327.11 479.094 2307.42 467.656L2316.7 437.422C2325.51 442.297 2335.07 446.234 2345.39 449.234C2355.79 452.234 2365.92 453.734 2375.76 453.734C2387.86 453.734 2397 451.156 2403.18 446C2409.37 440.75 2412.47 433.25 2412.47 423.5C2412.47 410.562 2403.84 401.609 2386.59 396.641C2385.37 396.266 2381.95 395.281 2376.32 393.688C2370.7 392 2365.4 390.406 2360.43 388.906C2355.56 387.312 2352.04 386.094 2349.89 385.25C2322.23 375.5 2308.4 357.312 2308.4 330.688C2308.4 312.031 2315.01 297.641 2328.23 287.516C2341.54 277.391 2359.17 272.328 2381.11 272.328C2405.95 272.328 2427.37 277.438 2445.37 287.656L2433.84 315.5C2415.47 307.25 2398.4 303.125 2382.65 303.125C2371.31 303.125 2362.73 305.141 2356.92 309.172C2351.2 313.109 2348.15 319.719 2347.78 329C2347.78 340.438 2353.45 347.891 2364.79 351.359C2367.04 352.203 2372.57 354.031 2381.39 356.844C2390.2 359.656 2395.92 361.484 2398.54 362.328C2417.39 368.516 2430.84 376.203 2438.9 385.391C2447.06 394.578 2451.14 407.375 2451.14 423.781C2451.14 443.375 2444.2 458.469 2430.32 469.062C2416.45 479.562 2397.75 484.812 2374.22 484.812Z" fill="white"/>
<path d="M0.578125 482L-4.11474 480.275L-6.58745 487H0.578125V482ZM76.375 275.844V270.844H72.8861L71.6821 274.118L76.375 275.844ZM117.859 275.844L122.56 274.141L121.366 270.844H117.859V275.844ZM192.531 482V487H199.66L197.232 480.297L192.531 482ZM153.438 482L148.719 483.653L149.891 487H153.438V482ZM133.047 423.781L137.766 422.128L136.593 418.781H133.047V423.781ZM60.9062 423.781V418.781H57.3677L56.1909 422.118L60.9062 423.781ZM40.375 482V487H43.9135L45.0904 483.663L40.375 482ZM70.4688 395.375L65.7073 393.849L63.6159 400.375H70.4688V395.375ZM123.344 395.375V400.375H130.141L128.117 393.886L123.344 395.375ZM97.3281 311.562L102.163 310.29L97.7997 293.707L92.5667 310.037L97.3281 311.562ZM5.27099 483.725L81.0679 277.569L71.6821 274.118L-4.11474 480.275L5.27099 483.725ZM76.375 280.844H117.859V270.844H76.375V280.844ZM113.158 277.547L187.83 483.703L197.232 480.297L122.56 274.141L113.158 277.547ZM192.531 477H153.438V487H192.531V477ZM158.156 480.347L137.766 422.128L128.328 425.434L148.719 483.653L158.156 480.347ZM133.047 418.781H60.9062V428.781H133.047V418.781ZM56.1909 422.118L35.6596 480.337L45.0904 483.663L65.6216 425.444L56.1909 422.118ZM40.375 477H0.578125V487H40.375V477ZM70.4688 400.375H123.344V390.375H70.4688V400.375ZM128.117 393.886C119.68 366.84 113.294 346.335 108.959 332.369C106.791 325.386 105.137 320.041 103.997 316.333C103.426 314.478 102.986 313.037 102.674 312.007C102.518 311.492 102.396 311.086 102.307 310.785C102.262 310.634 102.227 310.515 102.202 310.425C102.189 310.381 102.179 310.346 102.172 310.321C102.165 310.295 102.162 310.286 102.163 310.29L92.4928 312.835C92.9997 314.761 101.735 342.896 118.571 396.864L128.117 393.886ZM92.5667 310.037L65.7073 393.849L75.2302 396.901L102.09 313.088L92.5667 310.037ZM282.182 482H277.182V487H282.182V482ZM282.182 275.984V270.984H277.182V275.984H282.182ZM322.682 275.984L326.895 273.291L325.42 270.984H322.682V275.984ZM408.182 408.453L403.99 411.178L403.994 411.184L408.182 408.453ZM415.354 419.422L411.171 422.16L411.2 422.204L411.23 422.248L415.354 419.422ZM422.667 430.25L418.479 432.981L428.022 447.615L427.666 430.148L422.667 430.25ZM421.682 275.984V270.984H416.682V275.984H421.682ZM456.417 275.984H461.417V270.984H456.417V275.984ZM456.417 482V487H461.417V482H456.417ZM415.354 482L411.146 484.7L412.622 487H415.354V482ZM322.401 337.156L318.128 339.753L318.16 339.805L318.193 339.857L322.401 337.156ZM315.651 326.047L319.924 323.451L310.079 307.247L310.654 326.198L315.651 326.047ZM316.776 482V487H321.776V482H316.776ZM287.182 482V275.984H277.182V482H287.182ZM282.182 280.984H322.682V270.984H282.182V280.984ZM318.47 278.678C325.79 290.127 340.656 313.199 363.061 347.885L371.461 342.459C349.053 307.77 334.2 284.717 326.895 273.291L318.47 278.678ZM363.061 347.885C385.465 382.57 399.11 403.671 403.99 411.178L412.375 405.728C407.505 398.236 393.869 377.149 371.461 342.459L363.061 347.885ZM403.994 411.184C405.403 413.345 407.796 417.004 411.171 422.16L419.538 416.684C416.163 411.527 413.774 407.874 412.371 405.722L403.994 411.184ZM411.23 422.248C414.698 427.31 417.107 430.878 418.479 432.981L426.855 427.519C425.414 425.31 422.948 421.659 419.479 416.596L411.23 422.248ZM427.666 430.148C427.008 397.933 426.682 381.338 426.682 380.188H416.682C416.682 381.474 417.013 398.254 417.668 430.352L427.666 430.148ZM426.682 380.188V275.984H416.682V380.188H426.682ZM421.682 280.984H456.417V270.984H421.682V280.984ZM451.417 275.984V482H461.417V275.984H451.417ZM456.417 477H415.354V487H456.417V477ZM419.562 479.3L326.609 334.456L318.193 339.857L411.146 484.7L419.562 479.3ZM326.674 334.56L319.924 323.451L311.378 328.643L318.128 339.753L326.674 334.56ZM310.654 326.198C311.404 350.95 311.776 368.272 311.776 378.219H321.776C321.776 368.103 321.399 350.644 320.649 325.895L310.654 326.198ZM311.776 378.219V482H321.776V378.219H311.776ZM316.776 477H282.182V487H316.776V477ZM608.084 451.484H603.084V456.484H608.084V451.484ZM689.084 433.062L692.619 436.598L692.626 436.591L692.633 436.585L689.084 433.062ZM688.521 323.938L685.154 327.633L685.161 327.64L685.169 327.647L688.521 323.938ZM608.084 306.641V301.641H603.084V306.641H608.084ZM569.974 482H564.974V487H569.974V482ZM569.974 275.984V270.984H564.974V275.984H569.974ZM714.677 300.875L711.515 304.748L711.535 304.764L711.554 304.779L714.677 300.875ZM738.302 332.938L733.683 334.851L733.691 334.871L733.7 334.891L738.302 332.938ZM716.506 455.141L719.835 458.871L719.845 458.862L716.506 455.141ZM608.084 456.484H635.365V446.484H608.084V456.484ZM635.365 456.484C659.739 456.484 679.106 450.111 692.619 436.598L685.548 429.527C674.499 440.577 658.054 446.484 635.365 446.484V456.484ZM692.633 436.585C706.135 422.98 712.506 403.526 712.506 379.062H702.506C702.506 401.849 696.595 418.395 685.535 429.54L692.633 436.585ZM712.506 379.062C712.506 353.026 706 332.994 691.874 320.228L685.169 327.647C696.355 337.756 702.506 354.474 702.506 379.062H712.506ZM691.889 320.242C677.95 307.542 657.437 301.641 631.287 301.641V311.641C656.137 311.641 673.78 317.271 685.154 327.633L691.889 320.242ZM631.287 301.641H608.084V311.641H631.287V301.641ZM603.084 306.641V451.484H613.084V306.641H603.084ZM574.974 482V275.984H564.974V482H574.974ZM569.974 280.984H629.599V270.984H569.974V280.984ZM629.599 280.984C647.225 280.984 662.87 283.005 676.584 286.975L679.365 277.369C664.579 273.089 647.973 270.984 629.599 270.984V280.984ZM676.584 286.975C690.267 290.936 701.88 296.88 711.515 304.748L717.84 297.002C707.038 288.182 694.181 281.658 679.365 277.369L676.584 286.975ZM711.554 304.779C721.159 312.463 728.543 322.445 733.683 334.851L742.922 331.024C737.187 317.18 728.821 305.787 717.801 296.971L711.554 304.779ZM733.7 334.891C738.92 347.188 741.599 361.595 741.599 378.219H751.599C751.599 360.53 748.748 344.749 742.905 330.984L733.7 334.891ZM741.599 378.219C741.599 410.44 731.931 434.584 713.167 451.419L719.845 458.862C741.205 439.698 751.599 412.56 751.599 378.219H741.599ZM713.176 451.41C694.291 468.266 667.82 477 633.115 477V487C669.472 487 698.595 477.828 719.835 458.871L713.176 451.41ZM633.115 477H569.974V487H633.115V477ZM850.876 482H845.876V487H850.876V482ZM850.876 275.422V270.422H845.876V275.422H850.876ZM954.235 276.828L953.622 281.79L953.63 281.791L954.235 276.828ZM976.032 282.031L974.297 286.721L974.336 286.735L974.374 286.749L976.032 282.031ZM992.766 292.016L989.231 295.551L989.25 295.571L989.27 295.59L992.766 292.016ZM1002.89 308.609L998.181 310.287L998.195 310.326L998.21 310.365L1002.89 308.609ZM969.422 386.656L967.783 381.933L960.731 384.381L965.679 389.97L969.422 386.656ZM988.266 418.438L992.77 416.265L992.765 416.256L988.266 418.438ZM1018.92 482V487H1026.89L1023.43 479.828L1018.92 482ZM977.297 482L972.732 484.038L974.054 487H977.297V482ZM953.251 428.141L957.816 426.102L957.796 426.056L957.774 426.011L953.251 428.141ZM936.376 393.828L940.653 391.239L939.292 388.991L936.669 388.837L936.376 393.828ZM920.485 393.688L920.441 398.687L920.463 398.688H920.485V393.688ZM888.563 393.406L888.607 388.406L883.563 388.362V393.406H888.563ZM888.563 482V487H893.563V482H888.563ZM962.11 358.391L965.254 362.278L965.271 362.264L965.289 362.25L962.11 358.391ZM888.563 303.688V298.688H883.563V303.688H888.563ZM888.563 365.984H883.563V370.984H888.563V365.984ZM909.516 366.125L909.479 371.125L909.498 371.125H909.516V366.125ZM855.876 482V275.422H845.876V482H855.876ZM850.876 280.422H927.235V270.422H850.876V280.422ZM927.235 280.422C937.504 280.422 946.289 280.885 953.622 281.79L954.848 271.866C946.993 270.896 937.779 270.422 927.235 270.422V280.422ZM953.63 281.791C960.955 282.685 967.84 284.332 974.297 286.721L977.766 277.342C970.536 274.668 962.89 272.847 954.84 271.865L953.63 281.791ZM974.374 286.749C980.766 288.994 985.65 291.971 989.231 295.551L996.302 288.48C991.445 283.623 985.173 279.943 977.689 277.314L974.374 286.749ZM989.27 295.59C992.939 299.179 995.947 304.015 998.181 310.287L1007.6 306.932C1004.96 299.516 1001.22 293.29 996.263 288.441L989.27 295.59ZM998.21 310.365C1000.48 316.418 1001.69 323.811 1001.69 332.656H1011.69C1011.69 322.939 1010.37 314.301 1007.57 306.854L998.21 310.365ZM1001.69 332.656C1001.69 345.586 998.761 355.871 993.257 363.848C987.764 371.807 979.409 377.897 967.783 381.933L971.062 391.38C984.28 386.791 994.558 379.568 1001.49 369.527C1008.4 359.504 1011.69 347.102 1011.69 332.656H1001.69ZM965.679 389.97C970.249 395.133 976.281 405.179 983.767 420.619L992.765 416.256C985.251 400.758 978.721 389.617 973.166 383.342L965.679 389.97ZM983.763 420.61L1014.42 484.172L1023.43 479.828L992.77 416.265L983.763 420.61ZM1018.92 477H977.297V487H1018.92V477ZM981.863 479.962L957.816 426.102L948.685 430.179L972.732 484.038L981.863 479.962ZM957.774 426.011C948.74 406.824 942.98 395.083 940.653 391.239L932.098 396.417C934.084 399.698 939.574 410.832 948.727 430.271L957.774 426.011ZM936.669 388.837C934.889 388.732 929.398 388.688 920.485 388.688V398.688C929.572 398.688 934.675 398.737 936.082 398.82L936.669 388.837ZM920.529 388.688L888.607 388.406L888.519 398.406L920.441 398.687L920.529 388.688ZM883.563 393.406V482H893.563V393.406H883.563ZM888.563 477H850.876V487H888.563V477ZM930.61 371.125C945.58 371.125 957.521 368.533 965.254 362.278L958.966 354.503C953.949 358.561 944.89 361.125 930.61 361.125V371.125ZM965.289 362.25C973.223 355.716 976.672 345.623 976.672 333.219H966.672C966.672 343.877 963.747 350.565 958.931 354.531L965.289 362.25ZM976.672 333.219C976.672 321.963 973.012 312.804 964.941 306.838L958.997 314.88C963.864 318.477 966.672 324.225 966.672 333.219H976.672ZM964.941 306.838C957.211 301.125 946.041 298.688 932.297 298.688V308.688C945.179 308.688 953.79 311.031 958.997 314.88L964.941 306.838ZM932.297 298.688H888.563V308.688H932.297V298.688ZM883.563 303.688V365.984H893.563V303.688H883.563ZM888.563 370.984C889.945 370.984 896.901 371.031 909.479 371.125L909.554 361.125C897.006 361.032 889.994 360.984 888.563 360.984V370.984ZM909.516 371.125C909.541 371.125 909.565 371.125 909.59 371.125C909.614 371.125 909.639 371.125 909.663 371.125C909.688 371.125 909.712 371.125 909.737 371.125C909.761 371.125 909.785 371.125 909.81 371.125C909.834 371.125 909.858 371.125 909.883 371.125C909.907 371.125 909.931 371.125 909.956 371.125C909.98 371.125 910.004 371.125 910.028 371.125C910.053 371.125 910.077 371.125 910.101 371.125C910.125 371.125 910.149 371.125 910.174 371.125C910.198 371.125 910.222 371.125 910.246 371.125C910.27 371.125 910.294 371.125 910.318 371.125C910.342 371.125 910.366 371.125 910.39 371.125C910.414 371.125 910.438 371.125 910.462 371.125C910.486 371.125 910.51 371.125 910.534 371.125C910.558 371.125 910.582 371.125 910.606 371.125C910.63 371.125 910.654 371.125 910.678 371.125C910.702 371.125 910.725 371.125 910.749 371.125C910.773 371.125 910.797 371.125 910.821 371.125C910.844 371.125 910.868 371.125 910.892 371.125C910.916 371.125 910.939 371.125 910.963 371.125C910.987 371.125 911.01 371.125 911.034 371.125C911.058 371.125 911.081 371.125 911.105 371.125C911.129 371.125 911.152 371.125 911.176 371.125C911.199 371.125 911.223 371.125 911.246 371.125C911.27 371.125 911.293 371.125 911.317 371.125C911.34 371.125 911.364 371.125 911.387 371.125C911.411 371.125 911.434 371.125 911.458 371.125C911.481 371.125 911.504 371.125 911.528 371.125C911.551 371.125 911.574 371.125 911.598 371.125C911.621 371.125 911.644 371.125 911.668 371.125C911.691 371.125 911.714 371.125 911.737 371.125C911.76 371.125 911.784 371.125 911.807 371.125C911.83 371.125 911.853 371.125 911.876 371.125C911.9 371.125 911.923 371.125 911.946 371.125C911.969 371.125 911.992 371.125 912.015 371.125C912.038 371.125 912.061 371.125 912.084 371.125C912.107 371.125 912.13 371.125 912.153 371.125C912.176 371.125 912.199 371.125 912.222 371.125C912.245 371.125 912.268 371.125 912.291 371.125C912.314 371.125 912.336 371.125 912.359 371.125C912.382 371.125 912.405 371.125 912.428 371.125C912.451 371.125 912.473 371.125 912.496 371.125C912.519 371.125 912.542 371.125 912.564 371.125C912.587 371.125 912.61 371.125 912.632 371.125C912.655 371.125 912.678 371.125 912.7 371.125C912.723 371.125 912.746 371.125 912.768 371.125C912.791 371.125 912.813 371.125 912.836 371.125C912.859 371.125 912.881 371.125 912.904 371.125C912.926 371.125 912.949 371.125 912.971 371.125C912.994 371.125 913.016 371.125 913.038 371.125C913.061 371.125 913.083 371.125 913.106 371.125C913.128 371.125 913.15 371.125 913.173 371.125C913.195 371.125 913.217 371.125 913.24 371.125C913.262 371.125 913.284 371.125 913.307 371.125C913.329 371.125 913.351 371.125 913.373 371.125C913.395 371.125 913.418 371.125 913.44 371.125C913.462 371.125 913.484 371.125 913.506 371.125C913.528 371.125 913.55 371.125 913.573 371.125C913.595 371.125 913.617 371.125 913.639 371.125C913.661 371.125 913.683 371.125 913.705 371.125C913.727 371.125 913.749 371.125 913.771 371.125C913.793 371.125 913.815 371.125 913.837 371.125C913.859 371.125 913.88 371.125 913.902 371.125C913.924 371.125 913.946 371.125 913.968 371.125C913.99 371.125 914.012 371.125 914.033 371.125C914.055 371.125 914.077 371.125 914.099 371.125C914.12 371.125 914.142 371.125 914.164 371.125C914.186 371.125 914.207 371.125 914.229 371.125C914.251 371.125 914.272 371.125 914.294 371.125C914.315 371.125 914.337 371.125 914.359 371.125C914.38 371.125 914.402 371.125 914.423 371.125C914.445 371.125 914.466 371.125 914.488 371.125C914.509 371.125 914.531 371.125 914.552 371.125C914.574 371.125 914.595 371.125 914.617 371.125C914.638 371.125 914.659 371.125 914.681 371.125C914.702 371.125 914.724 371.125 914.745 371.125C914.766 371.125 914.787 371.125 914.809 371.125C914.83 371.125 914.851 371.125 914.873 371.125C914.894 371.125 914.915 371.125 914.936 371.125C914.957 371.125 914.979 371.125 915 371.125C915.021 371.125 915.042 371.125 915.063 371.125C915.084 371.125 915.105 371.125 915.126 371.125C915.148 371.125 915.169 371.125 915.19 371.125C915.211 371.125 915.232 371.125 915.253 371.125C915.274 371.125 915.295 371.125 915.316 371.125C915.337 371.125 915.357 371.125 915.378 371.125C915.399 371.125 915.42 371.125 915.441 371.125C915.462 371.125 915.483 371.125 915.504 371.125C915.524 371.125 915.545 371.125 915.566 371.125C915.587 371.125 915.608 371.125 915.628 371.125C915.649 371.125 915.67 371.125 915.69 371.125C915.711 371.125 915.732 371.125 915.752 371.125C915.773 371.125 915.794 371.125 915.814 371.125C915.835 371.125 915.856 371.125 915.876 371.125C915.897 371.125 915.917 371.125 915.938 371.125C915.958 371.125 915.979 371.125 915.999 371.125C916.02 371.125 916.04 371.125 916.061 371.125C916.081 371.125 916.102 371.125 916.122 371.125C916.142 371.125 916.163 371.125 916.183 371.125C916.203 371.125 916.224 371.125 916.244 371.125C916.264 371.125 916.285 371.125 916.305 371.125C916.325 371.125 916.345 371.125 916.366 371.125C916.386 371.125 916.406 371.125 916.426 371.125C916.447 371.125 916.467 371.125 916.487 371.125C916.507 371.125 916.527 371.125 916.547 371.125C916.567 371.125 916.587 371.125 916.607 371.125C916.628 371.125 916.648 371.125 916.668 371.125C916.688 371.125 916.708 371.125 916.728 371.125C916.748 371.125 916.768 371.125 916.787 371.125C916.807 371.125 916.827 371.125 916.847 371.125C916.867 371.125 916.887 371.125 916.907 371.125C916.927 371.125 916.947 371.125 916.966 371.125C916.986 371.125 917.006 371.125 917.026 371.125C917.045 371.125 917.065 371.125 917.085 371.125C917.105 371.125 917.124 371.125 917.144 371.125C917.164 371.125 917.183 371.125 917.203 371.125C917.223 371.125 917.242 371.125 917.262 371.125C917.281 371.125 917.301 371.125 917.321 371.125C917.34 371.125 917.36 371.125 917.379 371.125C917.399 371.125 917.418 371.125 917.438 371.125C917.457 371.125 917.477 371.125 917.496 371.125C917.516 371.125 917.535 371.125 917.554 371.125C917.574 371.125 917.593 371.125 917.612 371.125C917.632 371.125 917.651 371.125 917.67 371.125C917.69 371.125 917.709 371.125 917.728 371.125C917.747 371.125 917.767 371.125 917.786 371.125C917.805 371.125 917.824 371.125 917.844 371.125C917.863 371.125 917.882 371.125 917.901 371.125C917.92 371.125 917.939 371.125 917.958 371.125C917.977 371.125 917.997 371.125 918.016 371.125C918.035 371.125 918.054 371.125 918.073 371.125C918.092 371.125 918.111 371.125 918.13 371.125C918.149 371.125 918.168 371.125 918.186 371.125C918.205 371.125 918.224 371.125 918.243 371.125C918.262 371.125 918.281 371.125 918.3 371.125C918.319 371.125 918.337 371.125 918.356 371.125C918.375 371.125 918.394 371.125 918.412 371.125C918.431 371.125 918.45 371.125 918.469 371.125C918.487 371.125 918.506 371.125 918.525 371.125C918.543 371.125 918.562 371.125 918.581 371.125C918.599 371.125 918.618 371.125 918.637 371.125C918.655 371.125 918.674 371.125 918.692 371.125C918.711 371.125 918.729 371.125 918.748 371.125C918.766 371.125 918.785 371.125 918.803 371.125C918.822 371.125 918.84 371.125 918.859 371.125C918.877 371.125 918.895 371.125 918.914 371.125C918.932 371.125 918.951 371.125 918.969 371.125C918.987 371.125 919.005 371.125 919.024 371.125C919.042 371.125 919.06 371.125 919.079 371.125C919.097 371.125 919.115 371.125 919.133 371.125C919.151 371.125 919.17 371.125 919.188 371.125C919.206 371.125 919.224 371.125 919.242 371.125C919.26 371.125 919.278 371.125 919.297 371.125C919.315 371.125 919.333 371.125 919.351 371.125C919.369 371.125 919.387 371.125 919.405 371.125C919.423 371.125 919.441 371.125 919.459 371.125C919.477 371.125 919.495 371.125 919.512 371.125C919.53 371.125 919.548 371.125 919.566 371.125C919.584 371.125 919.602 371.125 919.62 371.125C919.638 371.125 919.655 371.125 919.673 371.125C919.691 371.125 919.709 371.125 919.726 371.125C919.744 371.125 919.762 371.125 919.78 371.125C919.797 371.125 919.815 371.125 919.833 371.125C919.85 371.125 919.868 371.125 919.885 371.125C919.903 371.125 919.921 371.125 919.938 371.125C919.956 371.125 919.973 371.125 919.991 371.125C920.008 371.125 920.026 371.125 920.043 371.125C920.061 371.125 920.078 371.125 920.096 371.125C920.113 371.125 920.131 371.125 920.148 371.125C920.166 371.125 920.183 371.125 920.2 371.125C920.218 371.125 920.235 371.125 920.252 371.125C920.27 371.125 920.287 371.125 920.304 371.125C920.321 371.125 920.339 371.125 920.356 371.125C920.373 371.125 920.39 371.125 920.408 371.125C920.425 371.125 920.442 371.125 920.459 371.125C920.476 371.125 920.493 371.125 920.51 371.125C920.528 371.125 920.545 371.125 920.562 371.125C920.579 371.125 920.596 371.125 920.613 371.125C920.63 371.125 920.647 371.125 920.664 371.125C920.681 371.125 920.698 371.125 920.715 371.125C920.732 371.125 920.749 371.125 920.766 371.125C920.782 371.125 920.799 371.125 920.816 371.125C920.833 371.125 920.85 371.125 920.867 371.125C920.884 371.125 920.9 371.125 920.917 371.125C920.934 371.125 920.951 371.125 920.967 371.125C920.984 371.125 921.001 371.125 921.017 371.125C921.034 371.125 921.051 371.125 921.067 371.125C921.084 371.125 921.101 371.125 921.117 371.125C921.134 371.125 921.151 371.125 921.167 371.125C921.184 371.125 921.2 371.125 921.217 371.125C921.233 371.125 921.25 371.125 921.266 371.125C921.283 371.125 921.299 371.125 921.316 371.125C921.332 371.125 921.348 371.125 921.365 371.125C921.381 371.125 921.398 371.125 921.414 371.125C921.43 371.125 921.447 371.125 921.463 371.125C921.479 371.125 921.495 371.125 921.512 371.125C921.528 371.125 921.544 371.125 921.56 371.125C921.577 371.125 921.593 371.125 921.609 371.125C921.625 371.125 921.641 371.125 921.658 371.125C921.674 371.125 921.69 371.125 921.706 371.125C921.722 371.125 921.738 371.125 921.754 371.125C921.77 371.125 921.786 371.125 921.802 371.125C921.818 371.125 921.834 371.125 921.85 371.125C921.866 371.125 921.882 371.125 921.898 371.125C921.914 371.125 921.93 371.125 921.946 371.125C921.962 371.125 921.978 371.125 921.993 371.125C922.009 371.125 922.025 371.125 922.041 371.125C922.057 371.125 922.072 371.125 922.088 371.125C922.104 371.125 922.12 371.125 922.135 371.125C922.151 371.125 922.167 371.125 922.182 371.125C922.198 371.125 922.214 371.125 922.229 371.125C922.245 371.125 922.261 371.125 922.276 371.125C922.292 371.125 922.307 371.125 922.323 371.125C922.339 371.125 922.354 371.125 922.37 371.125C922.385 371.125 922.401 371.125 922.416 371.125C922.431 371.125 922.447 371.125 922.462 371.125C922.478 371.125 922.493 371.125 922.509 371.125C922.524 371.125 922.539 371.125 922.555 371.125C922.57 371.125 922.585 371.125 922.601 371.125C922.616 371.125 922.631 371.125 922.646 371.125C922.662 371.125 922.677 371.125 922.692 371.125C922.707 371.125 922.722 371.125 922.738 371.125C922.753 371.125 922.768 371.125 922.783 371.125C922.798 371.125 922.813 371.125 922.828 371.125C922.843 371.125 922.859 371.125 922.874 371.125C922.889 371.125 922.904 371.125 922.919 371.125C922.934 371.125 922.949 371.125 922.964 371.125C922.979 371.125 922.993 371.125 923.008 371.125C923.023 371.125 923.038 371.125 923.053 371.125C923.068 371.125 923.083 371.125 923.098 371.125C923.112 371.125 923.127 371.125 923.142 371.125C923.157 371.125 923.172 371.125 923.186 371.125C923.201 371.125 923.216 371.125 923.23 371.125C923.245 371.125 923.26 371.125 923.275 371.125C923.289 371.125 923.304 371.125 923.318 371.125C923.333 371.125 923.348 371.125 923.362 371.125C923.377 371.125 923.391 371.125 923.406 371.125C923.42 371.125 923.435 371.125 923.449 371.125C923.464 371.125 923.478 371.125 923.493 371.125C923.507 371.125 923.522 371.125 923.536 371.125C923.551 371.125 923.565 371.125 923.579 371.125C923.594 371.125 923.608 371.125 923.622 371.125C923.637 371.125 923.651 371.125 923.665 371.125C923.68 371.125 923.694 371.125 923.708 371.125C923.722 371.125 923.737 371.125 923.751 371.125C923.765 371.125 923.779 371.125 923.793 371.125C923.807 371.125 923.822 371.125 923.836 371.125C923.85 371.125 923.864 371.125 923.878 371.125C923.892 371.125 923.906 371.125 923.92 371.125C923.934 371.125 923.948 371.125 923.962 371.125C923.976 371.125 923.99 371.125 924.004 371.125C924.018 371.125 924.032 371.125 924.046 371.125C924.06 371.125 924.074 371.125 924.087 371.125C924.101 371.125 924.115 371.125 924.129 371.125C924.143 371.125 924.156 371.125 924.17 371.125C924.184 371.125 924.198 371.125 924.212 371.125C924.225 371.125 924.239 371.125 924.253 371.125C924.266 371.125 924.28 371.125 924.294 371.125C924.307 371.125 924.321 371.125 924.335 371.125C924.348 371.125 924.362 371.125 924.375 371.125C924.389 371.125 924.402 371.125 924.416 371.125C924.43 371.125 924.443 371.125 924.456 371.125C924.47 371.125 924.483 371.125 924.497 371.125C924.51 371.125 924.524 371.125 924.537 371.125C924.55 371.125 924.564 371.125 924.577 371.125C924.591 371.125 924.604 371.125 924.617 371.125C924.63 371.125 924.644 371.125 924.657 371.125C924.67 371.125 924.684 371.125 924.697 371.125C924.71 371.125 924.723 371.125 924.736 371.125C924.75 371.125 924.763 371.125 924.776 371.125C924.789 371.125 924.802 371.125 924.815 371.125C924.828 371.125 924.841 371.125 924.854 371.125C924.868 371.125 924.881 371.125 924.894 371.125C924.907 371.125 924.92 371.125 924.933 371.125C924.946 371.125 924.959 371.125 924.971 371.125C924.984 371.125 924.997 371.125 925.01 371.125C925.023 371.125 925.036 371.125 925.049 371.125C925.062 371.125 925.074 371.125 925.087 371.125C925.1 371.125 925.113 371.125 925.126 371.125C925.138 371.125 925.151 371.125 925.164 371.125C925.177 371.125 925.189 371.125 925.202 371.125C925.215 371.125 925.227 371.125 925.24 371.125C925.253 371.125 925.265 371.125 925.278 371.125C925.29 371.125 925.303 371.125 925.315 371.125C925.328 371.125 925.341 371.125 925.353 371.125C925.366 371.125 925.378 371.125 925.391 371.125C925.403 371.125 925.415 371.125 925.428 371.125C925.44 371.125 925.453 371.125 925.465 371.125C925.477 371.125 925.49 371.125 925.502 371.125C925.515 371.125 925.527 371.125 925.539 371.125C925.551 371.125 925.564 371.125 925.576 371.125C925.588 371.125 925.6 371.125 925.613 371.125C925.625 371.125 925.637 371.125 925.649 371.125C925.661 371.125 925.674 371.125 925.686 371.125C925.698 371.125 925.71 371.125 925.722 371.125C925.734 371.125 925.746 371.125 925.758 371.125C925.77 371.125 925.782 371.125 925.794 371.125C925.806 371.125 925.818 371.125 925.83 371.125C925.842 371.125 925.854 371.125 925.866 371.125C925.878 371.125 925.89 371.125 925.902 371.125C925.914 371.125 925.925 371.125 925.937 371.125C925.949 371.125 925.961 371.125 925.973 371.125C925.985 371.125 925.996 371.125 926.008 371.125C926.02 371.125 926.032 371.125 926.043 371.125C926.055 371.125 926.067 371.125 926.078 371.125C926.09 371.125 926.102 371.125 926.113 371.125C926.125 371.125 926.136 371.125 926.148 371.125C926.16 371.125 926.171 371.125 926.183 371.125C926.194 371.125 926.206 371.125 926.217 371.125C926.229 371.125 926.24 371.125 926.252 371.125C926.263 371.125 926.275 371.125 926.286 371.125C926.297 371.125 926.309 371.125 926.32 371.125C926.332 371.125 926.343 371.125 926.354 371.125C926.366 371.125 926.377 371.125 926.388 371.125C926.399 371.125 926.411 371.125 926.422 371.125C926.433 371.125 926.444 371.125 926.456 371.125C926.467 371.125 926.478 371.125 926.489 371.125C926.5 371.125 926.511 371.125 926.523 371.125C926.534 371.125 926.545 371.125 926.556 371.125C926.567 371.125 926.578 371.125 926.589 371.125C926.6 371.125 926.611 371.125 926.622 371.125C926.633 371.125 926.644 371.125 926.655 371.125C926.666 371.125 926.677 371.125 926.688 371.125C926.699 371.125 926.709 371.125 926.72 371.125C926.731 371.125 926.742 371.125 926.753 371.125C926.764 371.125 926.775 371.125 926.785 371.125C926.796 371.125 926.807 371.125 926.818 371.125C926.828 371.125 926.839 371.125 926.85 371.125C926.86 371.125 926.871 371.125 926.882 371.125C926.892 371.125 926.903 371.125 926.914 371.125C926.924 371.125 926.935 371.125 926.945 371.125C926.956 371.125 926.966 371.125 926.977 371.125C926.988 371.125 926.998 371.125 927.009 371.125C927.019 371.125 927.029 371.125 927.04 371.125C927.05 371.125 927.061 371.125 927.071 371.125C927.082 371.125 927.092 371.125 927.102 371.125C927.113 371.125 927.123 371.125 927.133 371.125C927.144 371.125 927.154 371.125 927.164 371.125C927.174 371.125 927.185 371.125 927.195 371.125C927.205 371.125 927.215 371.125 927.226 371.125C927.236 371.125 927.246 371.125 927.256 371.125C927.266 371.125 927.276 371.125 927.286 371.125C927.297 371.125 927.307 371.125 927.317 371.125C927.327 371.125 927.337 371.125 927.347 371.125C927.357 371.125 927.367 371.125 927.377 371.125C927.387 371.125 927.397 371.125 927.407 371.125C927.417 371.125 927.427 371.125 927.436 371.125C927.446 371.125 927.456 371.125 927.466 371.125C927.476 371.125 927.486 371.125 927.496 371.125C927.505 371.125 927.515 371.125 927.525 371.125C927.535 371.125 927.544 371.125 927.554 371.125C927.564 371.125 927.574 371.125 927.583 371.125C927.593 371.125 927.603 371.125 927.612 371.125C927.622 371.125 927.631 371.125 927.641 371.125C927.651 371.125 927.66 371.125 927.67 371.125C927.679 371.125 927.689 371.125 927.698 371.125C927.708 371.125 927.717 371.125 927.727 371.125C927.736 371.125 927.746 371.125 927.755 371.125C927.765 371.125 927.774 371.125 927.783 371.125C927.793 371.125 927.802 371.125 927.812 371.125C927.821 371.125 927.83 371.125 927.84 371.125C927.849 371.125 927.858 371.125 927.867 371.125C927.877 371.125 927.886 371.125 927.895 371.125C927.904 371.125 927.914 371.125 927.923 371.125C927.932 371.125 927.941 371.125 927.95 371.125C927.959 371.125 927.968 371.125 927.977 371.125C927.987 371.125 927.996 371.125 928.005 371.125C928.014 371.125 928.023 371.125 928.032 371.125C928.041 371.125 928.05 371.125 928.059 371.125C928.068 371.125 928.077 371.125 928.086 371.125C928.094 371.125 928.103 371.125 928.112 371.125C928.121 371.125 928.13 371.125 928.139 371.125C928.148 371.125 928.156 371.125 928.165 371.125C928.174 371.125 928.183 371.125 928.192 371.125C928.2 371.125 928.209 371.125 928.218 371.125C928.227 371.125 928.235 371.125 928.244 371.125C928.253 371.125 928.261 371.125 928.27 371.125C928.278 371.125 928.287 371.125 928.296 371.125C928.304 371.125 928.313 371.125 928.321 371.125C928.33 371.125 928.338 371.125 928.347 371.125C928.355 371.125 928.364 371.125 928.372 371.125C928.381 371.125 928.389 371.125 928.398 371.125C928.406 371.125 928.414 371.125 928.423 371.125C928.431 371.125 928.44 371.125 928.448 371.125C928.456 371.125 928.465 371.125 928.473 371.125C928.481 371.125 928.489 371.125 928.498 371.125C928.506 371.125 928.514 371.125 928.522 371.125C928.531 371.125 928.539 371.125 928.547 371.125C928.555 371.125 928.563 371.125 928.571 371.125C928.579 371.125 928.587 371.125 928.596 371.125C928.604 371.125 928.612 371.125 928.62 371.125C928.628 371.125 928.636 371.125 928.644 371.125C928.652 371.125 928.66 371.125 928.668 371.125C928.676 371.125 928.684 371.125 928.691 371.125C928.699 371.125 928.707 371.125 928.715 371.125C928.723 371.125 928.731 371.125 928.739 371.125C928.747 371.125 928.754 371.125 928.762 371.125C928.77 371.125 928.778 371.125 928.785 371.125C928.793 371.125 928.801 371.125 928.809 371.125C928.816 371.125 928.824 371.125 928.832 371.125C928.839 371.125 928.847 371.125 928.854 371.125C928.862 371.125 928.87 371.125 928.877 371.125C928.885 371.125 928.892 371.125 928.9 371.125C928.907 371.125 928.915 371.125 928.922 371.125C928.93 371.125 928.937 371.125 928.945 371.125C928.952 371.125 928.96 371.125 928.967 371.125C928.974 371.125 928.982 371.125 928.989 371.125C928.997 371.125 929.004 371.125 929.011 371.125C929.019 371.125 929.026 371.125 929.033 371.125C929.04 371.125 929.048 371.125 929.055 371.125C929.062 371.125 929.069 371.125 929.077 371.125C929.084 371.125 929.091 371.125 929.098 371.125C929.105 371.125 929.112 371.125 929.119 371.125C929.127 371.125 929.134 371.125 929.141 371.125C929.148 371.125 929.155 371.125 929.162 371.125C929.169 371.125 929.176 371.125 929.183 371.125C929.19 371.125 929.197 371.125 929.204 371.125C929.211 371.125 929.218 371.125 929.224 371.125C929.231 371.125 929.238 371.125 929.245 371.125C929.252 371.125 929.259 371.125 929.266 371.125C929.272 371.125 929.279 371.125 929.286 371.125C929.293 371.125 929.299 371.125 929.306 371.125C929.313 371.125 929.32 371.125 929.326 371.125C929.333 371.125 929.34 371.125 929.346 371.125C929.353 371.125 929.36 371.125 929.366 371.125C929.373 371.125 929.379 371.125 929.386 371.125C929.393 371.125 929.399 371.125 929.406 371.125C929.412 371.125 929.419 371.125 929.425 371.125C929.432 371.125 929.438 371.125 929.444 371.125C929.451 371.125 929.457 371.125 929.464 371.125C929.47 371.125 929.476 371.125 929.483 371.125C929.489 371.125 929.495 371.125 929.502 371.125C929.508 371.125 929.514 371.125 929.521 371.125C929.527 371.125 929.533 371.125 929.539 371.125C929.546 371.125 929.552 371.125 929.558 371.125C929.564 371.125 929.57 371.125 929.576 371.125C929.583 371.125 929.589 371.125 929.595 371.125C929.601 371.125 929.607 371.125 929.613 371.125C929.619 371.125 929.625 371.125 929.631 371.125C929.637 371.125 929.643 371.125 929.649 371.125C929.655 371.125 929.661 371.125 929.667 371.125C929.673 371.125 929.679 371.125 929.685 371.125C929.69 371.125 929.696 371.125 929.702 371.125C929.708 371.125 929.714 371.125 929.72 371.125C929.725 371.125 929.731 371.125 929.737 371.125C929.743 371.125 929.748 371.125 929.754 371.125C929.76 371.125 929.766 371.125 929.771 371.125C929.777 371.125 929.783 371.125 929.788 371.125C929.794 371.125 929.799 371.125 929.805 371.125C929.811 371.125 929.816 371.125 929.822 371.125C929.827 371.125 929.833 371.125 929.838 371.125C929.844 371.125 929.849 371.125 929.855 371.125C929.86 371.125 929.866 371.125 929.871 371.125C929.877 371.125 929.882 371.125 929.887 371.125C929.893 371.125 929.898 371.125 929.903 371.125C929.909 371.125 929.914 371.125 929.919 371.125C929.925 371.125 929.93 371.125 929.935 371.125C929.94 371.125 929.946 371.125 929.951 371.125C929.956 371.125 929.961 371.125 929.966 371.125C929.971 371.125 929.977 371.125 929.982 371.125C929.987 371.125 929.992 371.125 929.997 371.125C930.002 371.125 930.007 371.125 930.012 371.125C930.017 371.125 930.022 371.125 930.027 371.125C930.032 371.125 930.037 371.125 930.042 371.125C930.047 371.125 930.052 371.125 930.057 371.125C930.062 371.125 930.067 371.125 930.072 371.125C930.077 371.125 930.081 371.125 930.086 371.125C930.091 371.125 930.096 371.125 930.101 371.125C930.106 371.125 930.11 371.125 930.115 371.125C930.12 371.125 930.125 371.125 930.129 371.125C930.134 371.125 930.139 371.125 930.143 371.125C930.148 371.125 930.153 371.125 930.157 371.125C930.162 371.125 930.166 371.125 930.171 371.125C930.176 371.125 930.18 371.125 930.185 371.125C930.189 371.125 930.194 371.125 930.198 371.125C930.203 371.125 930.207 371.125 930.212 371.125C930.216 371.125 930.22 371.125 930.225 371.125C930.229 371.125 930.234 371.125 930.238 371.125C930.242 371.125 930.247 371.125 930.251 371.125C930.255 371.125 930.26 371.125 930.264 371.125C930.268 371.125 930.272 371.125 930.277 371.125C930.281 371.125 930.285 371.125 930.289 371.125C930.294 371.125 930.298 371.125 930.302 371.125C930.306 371.125 930.31 371.125 930.314 371.125C930.318 371.125 930.322 371.125 930.327 371.125C930.331 371.125 930.335 371.125 930.339 371.125C930.343 371.125 930.347 371.125 930.351 371.125C930.355 371.125 930.359 371.125 930.363 371.125C930.367 371.125 930.37 371.125 930.374 371.125C930.378 371.125 930.382 371.125 930.386 371.125C930.39 371.125 930.394 371.125 930.398 371.125C930.401 371.125 930.405 371.125 930.409 371.125C930.413 371.125 930.416 371.125 930.42 371.125C930.424 371.125 930.428 371.125 930.431 371.125C930.435 371.125 930.439 371.125 930.442 371.125C930.446 371.125 930.45 371.125 930.453 371.125C930.457 371.125 930.46 371.125 930.464 371.125C930.467 371.125 930.471 371.125 930.475 371.125C930.478 371.125 930.482 371.125 930.485 371.125C930.489 371.125 930.492 371.125 930.495 371.125C930.499 371.125 930.502 371.125 930.506 371.125C930.509 371.125 930.512 371.125 930.516 371.125C930.519 371.125 930.522 371.125 930.526 371.125C930.529 371.125 930.532 371.125 930.536 371.125C930.539 371.125 930.542 371.125 930.545 371.125C930.549 371.125 930.552 371.125 930.555 371.125C930.558 371.125 930.561 371.125 930.564 371.125C930.568 371.125 930.571 371.125 930.574 371.125C930.577 371.125 930.58 371.125 930.583 371.125C930.586 371.125 930.589 371.125 930.592 371.125C930.595 371.125 930.598 371.125 930.601 371.125C930.604 371.125 930.607 371.125 930.61 371.125V361.125C930.607 361.125 930.604 361.125 930.601 361.125C930.598 361.125 930.595 361.125 930.592 361.125C930.589 361.125 930.586 361.125 930.583 361.125C930.58 361.125 930.577 361.125 930.574 361.125C930.571 361.125 930.568 361.125 930.564 361.125C930.561 361.125 930.558 361.125 930.555 361.125C930.552 361.125 930.549 361.125 930.545 361.125C930.542 361.125 930.539 361.125 930.536 361.125C930.532 361.125 930.529 361.125 930.526 361.125C930.522 361.125 930.519 361.125 930.516 361.125C930.512 361.125 930.509 361.125 930.506 361.125C930.502 361.125 930.499 361.125 930.495 361.125C930.492 361.125 930.489 361.125 930.485 361.125C930.482 361.125 930.478 361.125 930.475 361.125C930.471 361.125 930.467 361.125 930.464 361.125C930.46 361.125 930.457 361.125 930.453 361.125C930.45 361.125 930.446 361.125 930.442 361.125C930.439 361.125 930.435 361.125 930.431 361.125C930.428 361.125 930.424 361.125 930.42 361.125C930.416 361.125 930.413 361.125 930.409 361.125C930.405 361.125 930.401 361.125 930.398 361.125C930.394 361.125 930.39 361.125 930.386 361.125C930.382 361.125 930.378 361.125 930.374 361.125C930.37 361.125 930.367 361.125 930.363 361.125C930.359 361.125 930.355 361.125 930.351 361.125C930.347 361.125 930.343 361.125 930.339 361.125C930.335 361.125 930.331 361.125 930.327 361.125C930.322 361.125 930.318 361.125 930.314 361.125C930.31 361.125 930.306 361.125 930.302 361.125C930.298 361.125 930.294 361.125 930.289 361.125C930.285 361.125 930.281 361.125 930.277 361.125C930.272 361.125 930.268 361.125 930.264 361.125C930.26 361.125 930.255 361.125 930.251 361.125C930.247 361.125 930.242 361.125 930.238 361.125C930.234 361.125 930.229 361.125 930.225 361.125C930.22 361.125 930.216 361.125 930.212 361.125C930.207 361.125 930.203 361.125 930.198 361.125C930.194 361.125 930.189 361.125 930.185 361.125C930.18 361.125 930.176 361.125 930.171 361.125C930.166 361.125 930.162 361.125 930.157 361.125C930.153 361.125 930.148 361.125 930.143 361.125C930.139 361.125 930.134 361.125 930.129 361.125C930.125 361.125 930.12 361.125 930.115 361.125C930.11 361.125 930.106 361.125 930.101 361.125C930.096 361.125 930.091 361.125 930.086 361.125C930.081 361.125 930.077 361.125 930.072 361.125C930.067 361.125 930.062 361.125 930.057 361.125C930.052 361.125 930.047 361.125 930.042 361.125C930.037 361.125 930.032 361.125 930.027 361.125C930.022 361.125 930.017 361.125 930.012 361.125C930.007 361.125 930.002 361.125 929.997 361.125C929.992 361.125 929.987 361.125 929.982 361.125C929.977 361.125 929.971 361.125 929.966 361.125C929.961 361.125 929.956 361.125 929.951 361.125C929.946 361.125 929.94 361.125 929.935 361.125C929.93 361.125 929.925 361.125 929.919 361.125C929.914 361.125 929.909 361.125 929.903 361.125C929.898 361.125 929.893 361.125 929.887 361.125C929.882 361.125 929.877 361.125 929.871 361.125C929.866 361.125 929.86 361.125 929.855 361.125C929.849 361.125 929.844 361.125 929.838 361.125C929.833 361.125 929.827 361.125 929.822 361.125C929.816 361.125 929.811 361.125 929.805 361.125C929.799 361.125 929.794 361.125 929.788 361.125C929.783 361.125 929.777 361.125 929.771 361.125C929.766 361.125 929.76 361.125 929.754 361.125C929.748 361.125 929.743 361.125 929.737 361.125C929.731 361.125 929.725 361.125 929.72 361.125C929.714 361.125 929.708 361.125 929.702 361.125C929.696 361.125 929.69 361.125 929.685 361.125C929.679 361.125 929.673 361.125 929.667 361.125C929.661 361.125 929.655 361.125 929.649 361.125C929.643 361.125 929.637 361.125 929.631 361.125C929.625 361.125 929.619 361.125 929.613 361.125C929.607 361.125 929.601 361.125 929.595 361.125C929.589 361.125 929.583 361.125 929.576 361.125C929.57 361.125 929.564 361.125 929.558 361.125C929.552 361.125 929.546 361.125 929.539 361.125C929.533 361.125 929.527 361.125 929.521 361.125C929.514 361.125 929.508 361.125 929.502 361.125C929.495 361.125 929.489 361.125 929.483 361.125C929.476 361.125 929.47 361.125 929.464 361.125C929.457 361.125 929.451 361.125 929.444 361.125C929.438 361.125 929.432 361.125 929.425 361.125C929.419 361.125 929.412 361.125 929.406 361.125C929.399 361.125 929.393 361.125 929.386 361.125C929.379 361.125 929.373 361.125 929.366 361.125C929.36 361.125 929.353 361.125 929.346 361.125C929.34 361.125 929.333 361.125 929.326 361.125C929.32 361.125 929.313 361.125 929.306 361.125C929.299 361.125 929.293 361.125 929.286 361.125C929.279 361.125 929.272 361.125 929.266 361.125C929.259 361.125 929.252 361.125 929.245 361.125C929.238 361.125 929.231 361.125 929.224 361.125C929.218 361.125 929.211 361.125 929.204 361.125C929.197 361.125 929.19 361.125 929.183 361.125C929.176 361.125 929.169 361.125 929.162 361.125C929.155 361.125 929.148 361.125 929.141 361.125C929.134 361.125 929.127 361.125 929.119 361.125C929.112 361.125 929.105 361.125 929.098 361.125C929.091 361.125 929.084 361.125 929.077 361.125C929.069 361.125 929.062 361.125 929.055 361.125C929.048 361.125 929.04 361.125 929.033 361.125C929.026 361.125 929.019 361.125 929.011 361.125C929.004 361.125 928.997 361.125 928.989 361.125C928.982 361.125 928.974 361.125 928.967 361.125C928.96 361.125 928.952 361.125 928.945 361.125C928.937 361.125 928.93 361.125 928.922 361.125C928.915 361.125 928.907 361.125 928.9 361.125C928.892 361.125 928.885 361.125 928.877 361.125C928.87 361.125 928.862 361.125 928.854 361.125C928.847 361.125 928.839 361.125 928.832 361.125C928.824 361.125 928.816 361.125 928.809 361.125C928.801 361.125 928.793 361.125 928.785 361.125C928.778 361.125 928.77 361.125 928.762 361.125C928.754 361.125 928.747 361.125 928.739 361.125C928.731 361.125 928.723 361.125 928.715 361.125C928.707 361.125 928.699 361.125 928.691 361.125C928.684 361.125 928.676 361.125 928.668 361.125C928.66 361.125 928.652 361.125 928.644 361.125C928.636 361.125 928.628 361.125 928.62 361.125C928.612 361.125 928.604 361.125 928.596 361.125C928.587 361.125 928.579 361.125 928.571 361.125C928.563 361.125 928.555 361.125 928.547 361.125C928.539 361.125 928.531 361.125 928.522 361.125C928.514 361.125 928.506 361.125 928.498 361.125C928.489 361.125 928.481 361.125 928.473 361.125C928.465 361.125 928.456 361.125 928.448 361.125C928.44 361.125 928.431 361.125 928.423 361.125C928.414 361.125 928.406 361.125 928.398 361.125C928.389 361.125 928.381 361.125 928.372 361.125C928.364 361.125 928.355 361.125 928.347 361.125C928.338 361.125 928.33 361.125 928.321 361.125C928.313 361.125 928.304 361.125 928.296 361.125C928.287 361.125 928.278 361.125 928.27 361.125C928.261 361.125 928.253 361.125 928.244 361.125C928.235 361.125 928.227 361.125 928.218 361.125C928.209 361.125 928.2 361.125 928.192 361.125C928.183 361.125 928.174 361.125 928.165 361.125C928.156 361.125 928.148 361.125 928.139 361.125C928.13 361.125 928.121 361.125 928.112 361.125C928.103 361.125 928.094 361.125 928.086 361.125C928.077 361.125 928.068 361.125 928.059 361.125C928.05 361.125 928.041 361.125 928.032 361.125C928.023 361.125 928.014 361.125 928.005 361.125C927.996 361.125 927.987 361.125 927.977 361.125C927.968 361.125 927.959 361.125 927.95 361.125C927.941 361.125 927.932 361.125 927.923 361.125C927.914 361.125 927.904 361.125 927.895 361.125C927.886 361.125 927.877 361.125 927.867 361.125C927.858 361.125 927.849 361.125 927.84 361.125C927.83 361.125 927.821 361.125 927.812 361.125C927.802 361.125 927.793 361.125 927.783 361.125C927.774 361.125 927.765 361.125 927.755 361.125C927.746 361.125 927.736 361.125 927.727 361.125C927.717 361.125 927.708 361.125 927.698 361.125C927.689 361.125 927.679 361.125 927.67 361.125C927.66 361.125 927.651 361.125 927.641 361.125C927.631 361.125 927.622 361.125 927.612 361.125C927.603 361.125 927.593 361.125 927.583 361.125C927.574 361.125 927.564 361.125 927.554 361.125C927.544 361.125 927.535 361.125 927.525 361.125C927.515 361.125 927.505 361.125 927.496 361.125C927.486 361.125 927.476 361.125 927.466 361.125C927.456 361.125 927.446 361.125 927.436 361.125C927.427 361.125 927.417 361.125 927.407 361.125C927.397 361.125 927.387 361.125 927.377 361.125C927.367 361.125 927.357 361.125 927.347 361.125C927.337 361.125 927.327 361.125 927.317 361.125C927.307 361.125 927.297 361.125 927.286 361.125C927.276 361.125 927.266 361.125 927.256 361.125C927.246 361.125 927.236 361.125 927.226 361.125C927.215 361.125 927.205 361.125 927.195 361.125C927.185 361.125 927.174 361.125 927.164 361.125C927.154 361.125 927.144 361.125 927.133 361.125C927.123 361.125 927.113 361.125 927.102 361.125C927.092 361.125 927.082 361.125 927.071 361.125C927.061 361.125 927.05 361.125 927.04 361.125C927.029 361.125 927.019 361.125 927.009 361.125C926.998 361.125 926.988 361.125 926.977 361.125C926.966 361.125 926.956 361.125 926.945 361.125C926.935 361.125 926.924 361.125 926.914 361.125C926.903 361.125 926.892 361.125 926.882 361.125C926.871 361.125 926.86 361.125 926.85 361.125C926.839 361.125 926.828 361.125 926.818 361.125C926.807 361.125 926.796 361.125 926.785 361.125C926.775 361.125 926.764 361.125 926.753 361.125C926.742 361.125 926.731 361.125 926.72 361.125C926.709 361.125 926.699 361.125 926.688 361.125C926.677 361.125 926.666 361.125 926.655 361.125C926.644 361.125 926.633 361.125 926.622 361.125C926.611 361.125 926.6 361.125 926.589 361.125C926.578 361.125 926.567 361.125 926.556 361.125C926.545 361.125 926.534 361.125 926.523 361.125C926.511 361.125 926.5 361.125 926.489 361.125C926.478 361.125 926.467 361.125 926.456 361.125C926.444 361.125 926.433 361.125 926.422 361.125C926.411 361.125 926.399 361.125 926.388 361.125C926.377 361.125 926.366 361.125 926.354 361.125C926.343 361.125 926.332 361.125 926.32 361.125C926.309 361.125 926.297 361.125 926.286 361.125C926.275 361.125 926.263 361.125 926.252 361.125C926.24 361.125 926.229 361.125 926.217 361.125C926.206 361.125 926.194 361.125 926.183 361.125C926.171 361.125 926.16 361.125 926.148 361.125C926.136 361.125 926.125 361.125 926.113 361.125C926.102 361.125 926.09 361.125 926.078 361.125C926.067 361.125 926.055 361.125 926.043 361.125C926.032 361.125 926.02 361.125 926.008 361.125C925.996 361.125 925.985 361.125 925.973 361.125C925.961 361.125 925.949 361.125 925.937 361.125C925.925 361.125 925.914 361.125 925.902 361.125C925.89 361.125 925.878 361.125 925.866 361.125C925.854 361.125 925.842 361.125 925.83 361.125C925.818 361.125 925.806 361.125 925.794 361.125C925.782 361.125 925.77 361.125 925.758 361.125C925.746 361.125 925.734 361.125 925.722 361.125C925.71 361.125 925.698 361.125 925.686 361.125C925.674 361.125 925.661 361.125 925.649 361.125C925.637 361.125 925.625 361.125 925.613 361.125C925.6 361.125 925.588 361.125 925.576 361.125C925.564 361.125 925.551 361.125 925.539 361.125C925.527 361.125 925.515 361.125 925.502 361.125C925.49 361.125 925.477 361.125 925.465 361.125C925.453 361.125 925.44 361.125 925.428 361.125C925.415 361.125 925.403 361.125 925.391 361.125C925.378 361.125 925.366 361.125 925.353 361.125C925.341 361.125 925.328 361.125 925.315 361.125C925.303 361.125 925.29 361.125 925.278 361.125C925.265 361.125 925.253 361.125 925.24 361.125C925.227 361.125 925.215 361.125 925.202 361.125C925.189 361.125 925.177 361.125 925.164 361.125C925.151 361.125 925.138 361.125 925.126 361.125C925.113 361.125 925.1 361.125 925.087 361.125C925.074 361.125 925.062 361.125 925.049 361.125C925.036 361.125 925.023 361.125 925.01 361.125C924.997 361.125 924.984 361.125 924.971 361.125C924.959 361.125 924.946 361.125 924.933 361.125C924.92 361.125 924.907 361.125 924.894 361.125C924.881 361.125 924.868 361.125 924.854 361.125C924.841 361.125 924.828 361.125 924.815 361.125C924.802 361.125 924.789 361.125 924.776 361.125C924.763 361.125 924.75 361.125 924.736 361.125C924.723 361.125 924.71 361.125 924.697 361.125C924.684 361.125 924.67 361.125 924.657 361.125C924.644 361.125 924.63 361.125 924.617 361.125C924.604 361.125 924.591 361.125 924.577 361.125C924.564 361.125 924.55 361.125 924.537 361.125C924.524 361.125 924.51 361.125 924.497 361.125C924.483 361.125 924.47 361.125 924.456 361.125C924.443 361.125 924.43 361.125 924.416 361.125C924.402 361.125 924.389 361.125 924.375 361.125C924.362 361.125 924.348 361.125 924.335 361.125C924.321 361.125 924.307 361.125 924.294 361.125C924.28 361.125 924.266 361.125 924.253 361.125C924.239 361.125 924.225 361.125 924.212 361.125C924.198 361.125 924.184 361.125 924.17 361.125C924.156 361.125 924.143 361.125 924.129 361.125C924.115 361.125 924.101 361.125 924.087 361.125C924.074 361.125 924.06 361.125 924.046 361.125C924.032 361.125 924.018 361.125 924.004 361.125C923.99 361.125 923.976 361.125 923.962 361.125C923.948 361.125 923.934 361.125 923.92 361.125C923.906 361.125 923.892 361.125 923.878 361.125C923.864 361.125 923.85 361.125 923.836 361.125C923.822 361.125 923.807 361.125 923.793 361.125C923.779 361.125 923.765 361.125 923.751 361.125C923.737 361.125 923.722 361.125 923.708 361.125C923.694 361.125 923.68 361.125 923.665 361.125C923.651 361.125 923.637 361.125 923.622 361.125C923.608 361.125 923.594 361.125 923.579 361.125C923.565 361.125 923.551 361.125 923.536 361.125C923.522 361.125 923.507 361.125 923.493 361.125C923.478 361.125 923.464 361.125 923.449 361.125C923.435 361.125 923.42 361.125 923.406 361.125C923.391 361.125 923.377 361.125 923.362 361.125C923.348 361.125 923.333 361.125 923.318 361.125C923.304 361.125 923.289 361.125 923.275 361.125C923.26 361.125 923.245 361.125 923.23 361.125C923.216 361.125 923.201 361.125 923.186 361.125C923.172 361.125 923.157 361.125 923.142 361.125C923.127 361.125 923.112 361.125 923.098 361.125C923.083 361.125 923.068 361.125 923.053 361.125C923.038 361.125 923.023 361.125 923.008 361.125C922.993 361.125 922.979 361.125 922.964 361.125C922.949 361.125 922.934 361.125 922.919 361.125C922.904 361.125 922.889 361.125 922.874 361.125C922.859 361.125 922.843 361.125 922.828 361.125C922.813 361.125 922.798 361.125 922.783 361.125C922.768 361.125 922.753 361.125 922.738 361.125C922.722 361.125 922.707 361.125 922.692 361.125C922.677 361.125 922.662 361.125 922.646 361.125C922.631 361.125 922.616 361.125 922.601 361.125C922.585 361.125 922.57 361.125 922.555 361.125C922.539 361.125 922.524 361.125 922.509 361.125C922.493 361.125 922.478 361.125 922.462 361.125C922.447 361.125 922.431 361.125 922.416 361.125C922.401 361.125 922.385 361.125 922.37 361.125C922.354 361.125 922.339 361.125 922.323 361.125C922.307 361.125 922.292 361.125 922.276 361.125C922.261 361.125 922.245 361.125 922.229 361.125C922.214 361.125 922.198 361.125 922.182 361.125C922.167 361.125 922.151 361.125 922.135 361.125C922.12 361.125 922.104 361.125 922.088 361.125C922.072 361.125 922.057 361.125 922.041 361.125C922.025 361.125 922.009 361.125 921.993 361.125C921.978 361.125 921.962 361.125 921.946 361.125C921.93 361.125 921.914 361.125 921.898 361.125C921.882 361.125 921.866 361.125 921.85 361.125C921.834 361.125 921.818 361.125 921.802 361.125C921.786 361.125 921.77 361.125 921.754 361.125C921.738 361.125 921.722 361.125 921.706 361.125C921.69 361.125 921.674 361.125 921.658 361.125C921.641 361.125 921.625 361.125 921.609 361.125C921.593 361.125 921.577 361.125 921.56 361.125C921.544 361.125 921.528 361.125 921.512 361.125C921.495 361.125 921.479 361.125 921.463 361.125C921.447 361.125 921.43 361.125 921.414 361.125C921.398 361.125 921.381 361.125 921.365 361.125C921.348 361.125 921.332 361.125 921.316 361.125C921.299 361.125 921.283 361.125 921.266 361.125C921.25 361.125 921.233 361.125 921.217 361.125C921.2 361.125 921.184 361.125 921.167 361.125C921.151 361.125 921.134 361.125 921.117 361.125C921.101 361.125 921.084 361.125 921.067 361.125C921.051 361.125 921.034 361.125 921.017 361.125C921.001 361.125 920.984 361.125 920.967 361.125C920.951 361.125 920.934 361.125 920.917 361.125C920.9 361.125 920.884 361.125 920.867 361.125C920.85 361.125 920.833 361.125 920.816 361.125C920.799 361.125 920.782 361.125 920.766 361.125C920.749 361.125 920.732 361.125 920.715 361.125C920.698 361.125 920.681 361.125 920.664 361.125C920.647 361.125 920.63 361.125 920.613 361.125C920.596 361.125 920.579 361.125 920.562 361.125C920.545 361.125 920.528 361.125 920.51 361.125C920.493 361.125 920.476 361.125 920.459 361.125C920.442 361.125 920.425 361.125 920.408 361.125C920.39 361.125 920.373 361.125 920.356 361.125C920.339 361.125 920.321 361.125 920.304 361.125C920.287 361.125 920.27 361.125 920.252 361.125C920.235 361.125 920.218 361.125 920.2 361.125C920.183 361.125 920.166 361.125 920.148 361.125C920.131 361.125 920.113 361.125 920.096 361.125C920.078 361.125 920.061 361.125 920.043 361.125C920.026 361.125 920.008 361.125 919.991 361.125C919.973 361.125 919.956 361.125 919.938 361.125C919.921 361.125 919.903 361.125 919.885 361.125C919.868 361.125 919.85 361.125 919.833 361.125C919.815 361.125 919.797 361.125 919.78 361.125C919.762 361.125 919.744 361.125 919.726 361.125C919.709 361.125 919.691 361.125 919.673 361.125C919.655 361.125 919.638 361.125 919.62 361.125C919.602 361.125 919.584 361.125 919.566 361.125C919.548 361.125 919.53 361.125 919.512 361.125C919.495 361.125 919.477 361.125 919.459 361.125C919.441 361.125 919.423 361.125 919.405 361.125C919.387 361.125 919.369 361.125 919.351 361.125C919.333 361.125 919.315 361.125 919.297 361.125C919.278 361.125 919.26 361.125 919.242 361.125C919.224 361.125 919.206 361.125 919.188 361.125C919.17 361.125 919.151 361.125 919.133 361.125C919.115 361.125 919.097 361.125 919.079 361.125C919.06 361.125 919.042 361.125 919.024 361.125C919.005 361.125 918.987 361.125 918.969 361.125C918.951 361.125 918.932 361.125 918.914 361.125C918.895 361.125 918.877 361.125 918.859 361.125C918.84 361.125 918.822 361.125 918.803 361.125C918.785 361.125 918.766 361.125 918.748 361.125C918.729 361.125 918.711 361.125 918.692 361.125C918.674 361.125 918.655 361.125 918.637 361.125C918.618 361.125 918.599 361.125 918.581 361.125C918.562 361.125 918.543 361.125 918.525 361.125C918.506 361.125 918.487 361.125 918.469 361.125C918.45 361.125 918.431 361.125 918.412 361.125C918.394 361.125 918.375 361.125 918.356 361.125C918.337 361.125 918.319 361.125 918.3 361.125C918.281 361.125 918.262 361.125 918.243 361.125C918.224 361.125 918.205 361.125 918.186 361.125C918.168 361.125 918.149 361.125 918.13 361.125C918.111 361.125 918.092 361.125 918.073 361.125C918.054 361.125 918.035 361.125 918.016 361.125C917.997 361.125 917.977 361.125 917.958 361.125C917.939 361.125 917.92 361.125 917.901 361.125C917.882 361.125 917.863 361.125 917.844 361.125C917.824 361.125 917.805 361.125 917.786 361.125C917.767 361.125 917.747 361.125 917.728 361.125C917.709 361.125 917.69 361.125 917.67 361.125C917.651 361.125 917.632 361.125 917.612 361.125C917.593 361.125 917.574 361.125 917.554 361.125C917.535 361.125 917.516 361.125 917.496 361.125C917.477 361.125 917.457 361.125 917.438 361.125C917.418 361.125 917.399 361.125 917.379 361.125C917.36 361.125 917.34 361.125 917.321 361.125C917.301 361.125 917.281 361.125 917.262 361.125C917.242 361.125 917.223 361.125 917.203 361.125C917.183 361.125 917.164 361.125 917.144 361.125C917.124 361.125 917.105 361.125 917.085 361.125C917.065 361.125 917.045 361.125 917.026 361.125C917.006 361.125 916.986 361.125 916.966 361.125C916.947 361.125 916.927 361.125 916.907 361.125C916.887 361.125 916.867 361.125 916.847 361.125C916.827 361.125 916.807 361.125 916.787 361.125C916.768 361.125 916.748 361.125 916.728 361.125C916.708 361.125 916.688 361.125 916.668 361.125C916.648 361.125 916.628 361.125 916.607 361.125C916.587 361.125 916.567 361.125 916.547 361.125C916.527 361.125 916.507 361.125 916.487 361.125C916.467 361.125 916.447 361.125 916.426 361.125C916.406 361.125 916.386 361.125 916.366 361.125C916.345 361.125 916.325 361.125 916.305 361.125C916.285 361.125 916.264 361.125 916.244 361.125C916.224 361.125 916.203 361.125 916.183 361.125C916.163 361.125 916.142 361.125 916.122 361.125C916.102 361.125 916.081 361.125 916.061 361.125C916.04 361.125 916.02 361.125 915.999 361.125C915.979 361.125 915.958 361.125 915.938 361.125C915.917 361.125 915.897 361.125 915.876 361.125C915.856 361.125 915.835 361.125 915.814 361.125C915.794 361.125 915.773 361.125 915.752 361.125C915.732 361.125 915.711 361.125 915.69 361.125C915.67 361.125 915.649 361.125 915.628 361.125C915.608 361.125 915.587 361.125 915.566 361.125C915.545 361.125 915.524 361.125 915.504 361.125C915.483 361.125 915.462 361.125 915.441 361.125C915.42 361.125 915.399 361.125 915.378 361.125C915.357 361.125 915.337 361.125 915.316 361.125C915.295 361.125 915.274 361.125 915.253 361.125C915.232 361.125 915.211 361.125 915.19 361.125C915.169 361.125 915.148 361.125 915.126 361.125C915.105 361.125 915.084 361.125 915.063 361.125C915.042 361.125 915.021 361.125 915 361.125C914.979 361.125 914.957 361.125 914.936 361.125C914.915 361.125 914.894 361.125 914.873 361.125C914.851 361.125 914.83 361.125 914.809 361.125C914.787 361.125 914.766 361.125 914.745 361.125C914.724 361.125 914.702 361.125 914.681 361.125C914.659 361.125 914.638 361.125 914.617 361.125C914.595 361.125 914.574 361.125 914.552 361.125C914.531 361.125 914.509 361.125 914.488 361.125C914.466 361.125 914.445 361.125 914.423 361.125C914.402 361.125 914.38 361.125 914.359 361.125C914.337 361.125 914.315 361.125 914.294 361.125C914.272 361.125 914.251 361.125 914.229 361.125C914.207 361.125 914.186 361.125 914.164 361.125C914.142 361.125 914.12 361.125 914.099 361.125C914.077 361.125 914.055 361.125 914.033 361.125C914.012 361.125 913.99 361.125 913.968 361.125C913.946 361.125 913.924 361.125 913.902 361.125C913.88 361.125 913.859 361.125 913.837 361.125C913.815 361.125 913.793 361.125 913.771 361.125C913.749 361.125 913.727 361.125 913.705 361.125C913.683 361.125 913.661 361.125 913.639 361.125C913.617 361.125 913.595 361.125 913.573 361.125C913.55 361.125 913.528 361.125 913.506 361.125C913.484 361.125 913.462 361.125 913.44 361.125C913.418 361.125 913.395 361.125 913.373 361.125C913.351 361.125 913.329 361.125 913.307 361.125C913.284 361.125 913.262 361.125 913.24 361.125C913.217 361.125 913.195 361.125 913.173 361.125C913.15 361.125 913.128 361.125 913.106 361.125C913.083 361.125 913.061 361.125 913.038 361.125C913.016 361.125 912.994 361.125 912.971 361.125C912.949 361.125 912.926 361.125 912.904 361.125C912.881 361.125 912.859 361.125 912.836 361.125C912.813 361.125 912.791 361.125 912.768 361.125C912.746 361.125 912.723 361.125 912.7 361.125C912.678 361.125 912.655 361.125 912.632 361.125C912.61 361.125 912.587 361.125 912.564 361.125C912.542 361.125 912.519 361.125 912.496 361.125C912.473 361.125 912.451 361.125 912.428 361.125C912.405 361.125 912.382 361.125 912.359 361.125C912.336 361.125 912.314 361.125 912.291 361.125C912.268 361.125 912.245 361.125 912.222 361.125C912.199 361.125 912.176 361.125 912.153 361.125C912.13 361.125 912.107 361.125 912.084 361.125C912.061 361.125 912.038 361.125 912.015 361.125C911.992 361.125 911.969 361.125 911.946 361.125C911.923 361.125 911.9 361.125 911.876 361.125C911.853 361.125 911.83 361.125 911.807 361.125C911.784 361.125 911.76 361.125 911.737 361.125C911.714 361.125 911.691 361.125 911.668 361.125C911.644 361.125 911.621 361.125 911.598 361.125C911.574 361.125 911.551 361.125 911.528 361.125C911.504 361.125 911.481 361.125 911.458 361.125C911.434 361.125 911.411 361.125 911.387 361.125C911.364 361.125 911.34 361.125 911.317 361.125C911.293 361.125 911.27 361.125 911.246 361.125C911.223 361.125 911.199 361.125 911.176 361.125C911.152 361.125 911.129 361.125 911.105 361.125C911.081 361.125 911.058 361.125 911.034 361.125C911.01 361.125 910.987 361.125 910.963 361.125C910.939 361.125 910.916 361.125 910.892 361.125C910.868 361.125 910.844 361.125 910.821 361.125C910.797 361.125 910.773 361.125 910.749 361.125C910.725 361.125 910.702 361.125 910.678 361.125C910.654 361.125 910.63 361.125 910.606 361.125C910.582 361.125 910.558 361.125 910.534 361.125C910.51 361.125 910.486 361.125 910.462 361.125C910.438 361.125 910.414 361.125 910.39 361.125C910.366 361.125 910.342 361.125 910.318 361.125C910.294 361.125 910.27 361.125 910.246 361.125C910.222 361.125 910.198 361.125 910.174 361.125C910.149 361.125 910.125 361.125 910.101 361.125C910.077 361.125 910.053 361.125 910.028 361.125C910.004 361.125 909.98 361.125 909.956 361.125C909.931 361.125 909.907 361.125 909.883 361.125C909.858 361.125 909.834 361.125 909.81 361.125C909.785 361.125 909.761 361.125 909.737 361.125C909.712 361.125 909.688 361.125 909.663 361.125C909.639 361.125 909.614 361.125 909.59 361.125C909.565 361.125 909.541 361.125 909.516 361.125V371.125ZM1115.32 482H1110.32V487H1115.32V482ZM1115.32 275.984V270.984H1110.32V275.984H1115.32ZM1240.2 275.984L1245.19 276.24L1245.46 270.984H1240.2V275.984ZM1238.65 306.219V311.219H1243.4L1243.65 306.474L1238.65 306.219ZM1153.43 306.219V301.219H1148.43V306.219H1153.43ZM1153.43 359.375H1148.43V364.375H1153.43V359.375ZM1234.43 359.375H1239.43V354.375H1234.43V359.375ZM1234.43 389.609V394.609H1239.43V389.609H1234.43ZM1153.43 389.609V384.609H1148.43V389.609H1153.43ZM1153.43 451.625H1148.43V456.625H1153.43V451.625ZM1241.75 451.625L1246.74 451.833L1246.96 446.625H1241.75V451.625ZM1240.48 482V487H1245.28L1245.48 482.208L1240.48 482ZM1120.32 482V275.984H1110.32V482H1120.32ZM1115.32 280.984H1240.2V270.984H1115.32V280.984ZM1235.21 275.729L1233.66 305.963L1243.65 306.474L1245.19 276.24L1235.21 275.729ZM1238.65 301.219H1153.43V311.219H1238.65V301.219ZM1148.43 306.219V359.375H1158.43V306.219H1148.43ZM1153.43 364.375H1234.43V354.375H1153.43V364.375ZM1229.43 359.375V389.609H1239.43V359.375H1229.43ZM1234.43 384.609H1153.43V394.609H1234.43V384.609ZM1148.43 389.609V451.625H1158.43V389.609H1148.43ZM1153.43 456.625H1241.75V446.625H1153.43V456.625ZM1236.75 451.417L1235.48 481.792L1245.48 482.208L1246.74 451.833L1236.75 451.417ZM1240.48 477H1115.32V487H1240.48V477ZM1491.78 482H1486.78V487H1491.78V482ZM1491.78 275.984V270.984H1486.78V275.984H1491.78ZM1616.66 275.984L1621.65 276.24L1621.92 270.984H1616.66V275.984ZM1615.11 306.219V311.219H1619.86L1620.1 306.474L1615.11 306.219ZM1529.89 306.219V301.219H1524.89V306.219H1529.89ZM1529.89 359.375H1524.89V364.375H1529.89V359.375ZM1610.89 359.375H1615.89V354.375H1610.89V359.375ZM1610.89 389.609V394.609H1615.89V389.609H1610.89ZM1529.89 389.609V384.609H1524.89V389.609H1529.89ZM1529.89 451.625H1524.89V456.625H1529.89V451.625ZM1618.2 451.625L1623.2 451.833L1623.42 446.625H1618.2V451.625ZM1616.94 482V487H1621.73L1621.93 482.208L1616.94 482ZM1496.78 482V275.984H1486.78V482H1496.78ZM1491.78 280.984H1616.66V270.984H1491.78V280.984ZM1611.66 275.729L1610.12 305.963L1620.1 306.474L1621.65 276.24L1611.66 275.729ZM1615.11 301.219H1529.89V311.219H1615.11V301.219ZM1524.89 306.219V359.375H1534.89V306.219H1524.89ZM1529.89 364.375H1610.89V354.375H1529.89V364.375ZM1605.89 359.375V389.609H1615.89V359.375H1605.89ZM1610.89 384.609H1529.89V394.609H1610.89V384.609ZM1524.89 389.609V451.625H1534.89V389.609H1524.89ZM1529.89 456.625H1618.2V446.625H1529.89V456.625ZM1613.21 451.417L1611.94 481.792L1621.93 482.208L1623.2 451.833L1613.21 451.417ZM1616.94 477H1491.78V487H1616.94V477ZM1722.9 482H1717.9V487H1722.9V482ZM1722.9 275.984V270.984H1717.9V275.984H1722.9ZM1761.01 275.984H1766.01V270.984H1761.01V275.984ZM1761.01 451.625H1756.01V456.625H1761.01V451.625ZM1847.21 451.625L1852.21 451.81L1852.4 446.625H1847.21V451.625ZM1846.09 482V487H1850.91L1851.09 482.185L1846.09 482ZM1727.9 482V275.984H1717.9V482H1727.9ZM1722.9 280.984H1761.01V270.984H1722.9V280.984ZM1756.01 275.984V451.625H1766.01V275.984H1756.01ZM1761.01 456.625H1847.21V446.625H1761.01V456.625ZM1842.22 451.44L1841.09 481.815L1851.09 482.185L1852.21 451.81L1842.22 451.44ZM1846.09 477H1722.9V487H1846.09V477ZM1942.77 482H1937.77V487H1942.77V482ZM1942.77 275.984V270.984H1937.77V275.984H1942.77ZM1980.88 275.984H1985.88V270.984H1980.88V275.984ZM1980.88 451.625H1975.88V456.625H1980.88V451.625ZM2067.08 451.625L2072.08 451.81L2072.27 446.625H2067.08V451.625ZM2065.96 482V487H2070.78L2070.96 482.185L2065.96 482ZM1947.77 482V275.984H1937.77V482H1947.77ZM1942.77 280.984H1980.88V270.984H1942.77V280.984ZM1975.88 275.984V451.625H1985.88V275.984H1975.88ZM1980.88 456.625H2067.08V446.625H1980.88V456.625ZM2062.09 451.44L2060.96 481.815L2070.96 482.185L2072.08 451.81L2062.09 451.44ZM2065.96 477H1942.77V487H2065.96V477ZM2163.63 482H2158.63V487H2163.63V482ZM2163.63 275.984V270.984H2158.63V275.984H2163.63ZM2201.74 275.984H2206.74V270.984H2201.74V275.984ZM2201.74 482V487H2206.74V482H2201.74ZM2168.63 482V275.984H2158.63V482H2168.63ZM2163.63 280.984H2201.74V270.984H2163.63V280.984ZM2196.74 275.984V482H2206.74V275.984H2196.74ZM2201.74 477H2163.63V487H2201.74V477ZM2307.42 467.656L2302.64 466.189L2301.47 469.985L2304.91 471.98L2307.42 467.656ZM2316.7 437.422L2319.12 433.047L2313.73 430.064L2311.92 435.955L2316.7 437.422ZM2345.39 449.234L2343.99 454.035L2344 454.039L2345.39 449.234ZM2403.18 446L2406.39 449.841L2406.4 449.827L2406.42 449.813L2403.18 446ZM2386.59 396.641L2385.12 401.42L2385.16 401.433L2385.21 401.445L2386.59 396.641ZM2376.32 393.688L2374.89 398.477L2374.93 398.488L2374.96 398.498L2376.32 393.688ZM2360.43 388.906L2358.88 393.659L2358.93 393.676L2358.99 393.693L2360.43 388.906ZM2349.89 385.25L2351.71 380.594L2351.63 380.563L2351.55 380.534L2349.89 385.25ZM2328.23 287.516L2325.2 283.536L2325.2 283.541L2325.19 283.546L2328.23 287.516ZM2445.37 287.656L2449.99 289.569L2451.68 285.489L2447.84 283.308L2445.37 287.656ZM2433.84 315.5L2431.79 320.061L2436.49 322.17L2438.46 317.413L2433.84 315.5ZM2356.92 309.172L2359.75 313.29L2359.76 313.285L2359.77 313.28L2356.92 309.172ZM2347.78 329L2342.78 328.798L2342.78 328.899V329H2347.78ZM2364.79 351.359L2366.55 346.678L2366.4 346.623L2366.26 346.578L2364.79 351.359ZM2398.54 362.328L2400.1 357.578L2400.09 357.573L2400.07 357.568L2398.54 362.328ZM2438.9 385.391L2435.15 388.689L2435.15 388.699L2435.16 388.71L2438.9 385.391ZM2430.32 469.062L2433.34 473.05L2433.35 473.043L2433.36 473.037L2430.32 469.062ZM2374.22 479.812C2350.17 479.812 2328.79 474.287 2309.93 463.333L2304.91 471.98C2325.43 483.9 2348.57 489.812 2374.22 489.812V479.812ZM2312.2 469.124L2321.48 438.889L2311.92 435.955L2302.64 466.189L2312.2 469.124ZM2314.28 441.797C2323.44 446.863 2333.35 450.939 2343.99 454.035L2346.78 444.433C2336.8 441.53 2327.59 437.731 2319.12 433.047L2314.28 441.797ZM2344 454.039C2354.81 457.156 2365.41 458.734 2375.76 458.734V448.734C2366.43 448.734 2356.77 447.313 2346.77 444.43L2344 454.039ZM2375.76 458.734C2388.46 458.734 2398.94 456.042 2406.39 449.841L2399.98 442.159C2395.05 446.271 2387.25 448.734 2375.76 448.734V458.734ZM2406.42 449.813C2413.95 443.421 2417.47 434.393 2417.47 423.5H2407.47C2407.47 432.107 2404.79 438.08 2399.95 442.187L2406.42 449.813ZM2417.47 423.5C2417.47 415.796 2414.85 409.063 2409.6 403.613C2404.46 398.285 2397.09 394.462 2387.97 391.836L2385.21 401.445C2393.34 403.788 2398.9 406.926 2402.4 410.551C2405.77 414.055 2407.47 418.267 2407.47 423.5H2417.47ZM2388.06 391.862C2386.78 391.466 2383.29 390.464 2377.69 388.877L2374.96 398.498C2380.61 400.099 2383.97 401.065 2385.12 401.42L2388.06 391.862ZM2377.76 388.898C2372.14 387.212 2366.84 385.619 2361.88 384.12L2358.99 393.693C2363.96 395.194 2369.26 396.788 2374.89 398.477L2377.76 388.898ZM2361.99 384.154C2357.12 382.563 2353.72 381.382 2351.71 380.594L2348.07 389.906C2350.36 390.806 2354 392.062 2358.88 393.659L2361.99 384.154ZM2351.55 380.534C2338.38 375.893 2328.93 369.394 2322.75 361.271C2316.61 353.186 2313.4 343.095 2313.4 330.688H2303.4C2303.4 344.905 2307.11 357.221 2314.79 367.323C2322.45 377.387 2333.73 384.857 2348.23 389.966L2351.55 380.534ZM2313.4 330.688C2313.4 313.373 2319.45 300.541 2331.27 291.485L2325.19 283.546C2310.58 294.741 2303.4 310.69 2303.4 330.688H2313.4ZM2331.26 291.495C2343.46 282.213 2359.92 277.328 2381.11 277.328V267.328C2358.42 267.328 2339.62 272.569 2325.2 283.536L2331.26 291.495ZM2381.11 277.328C2405.26 277.328 2425.79 282.291 2442.9 292.004L2447.84 283.308C2428.95 272.584 2406.64 267.328 2381.11 267.328V277.328ZM2440.75 285.743L2429.22 313.587L2438.46 317.413L2449.99 289.569L2440.75 285.743ZM2435.89 310.939C2417.04 302.477 2399.28 298.125 2382.65 298.125V308.125C2397.53 308.125 2413.89 312.023 2431.79 320.061L2435.89 310.939ZM2382.65 298.125C2370.85 298.125 2361.09 300.197 2354.07 305.063L2359.77 313.28C2364.38 310.084 2371.76 308.125 2382.65 308.125V298.125ZM2354.08 305.054C2346.66 310.166 2343.2 318.52 2342.78 328.798L2352.77 329.202C2353.11 320.918 2355.74 316.052 2359.75 313.29L2354.08 305.054ZM2342.78 329C2342.78 335.565 2344.42 341.42 2348.05 346.196C2351.67 350.955 2356.93 354.182 2363.33 356.141L2366.26 346.578C2361.32 345.068 2358.06 342.834 2356.01 340.14C2353.97 337.462 2352.78 333.873 2352.78 329H2342.78ZM2363.04 356.041C2365.43 356.938 2371.1 358.808 2379.87 361.607L2382.91 352.08C2374.05 349.255 2368.66 347.468 2366.55 346.678L2363.04 356.041ZM2379.87 361.607C2388.68 364.42 2394.39 366.246 2397.01 367.088L2400.07 357.568C2397.44 356.722 2391.72 354.893 2382.91 352.08L2379.87 361.607ZM2396.98 367.079C2415.45 373.143 2427.93 380.469 2435.15 388.689L2442.66 382.093C2433.75 371.937 2419.32 363.888 2400.1 357.578L2396.98 367.079ZM2435.16 388.71C2442.27 396.713 2446.14 408.182 2446.14 423.781H2456.14C2456.14 406.568 2451.85 392.443 2442.64 382.071L2435.16 388.71ZM2446.14 423.781C2446.14 442.035 2439.76 455.566 2427.29 465.088L2433.36 473.037C2448.64 461.372 2456.14 444.715 2456.14 423.781H2446.14ZM2427.31 465.075C2414.56 474.721 2397.04 479.812 2374.22 479.812V489.812C2398.46 489.812 2418.34 484.404 2433.34 473.05L2427.31 465.075Z" fill="black"/>
</svg>
