<svg width="24" height="24" viewBox="0 0 24 24" fill="none" xmlns="http://www.w3.org/2000/svg">
<path d="M4.05 12C4.36691 12.2638 4.6228 12.5933 4.8 12.9656C5.25 13.8938 5.25 15.0281 5.25 16.125C5.25 18.4031 5.34375 19.5 7.5 19.5C7.69891 19.5 7.88968 19.579 8.03033 19.7197C8.17098 19.8603 8.25 20.0511 8.25 20.25C8.25 20.4489 8.17098 20.6397 8.03033 20.7803C7.88968 20.921 7.69891 21 7.5 21C5.85938 21 4.75313 20.4281 4.2 19.2844C3.75 18.3563 3.75 17.2219 3.75 16.125C3.75 13.8469 3.65625 12.75 1.5 12.75C1.30109 12.75 1.11032 12.671 0.96967 12.5303C0.829018 12.3897 0.75 12.1989 0.75 12C0.75 11.8011 0.829018 11.6103 0.96967 11.4697C1.11032 11.329 1.30109 11.25 1.5 11.25C3.65625 11.25 3.75 10.1531 3.75 7.875C3.75 6.77812 3.75 5.64375 4.2 4.71562C4.75313 3.57187 5.85938 3 7.5 3C7.69891 3 7.88968 3.07902 8.03033 3.21967C8.17098 3.36032 8.25 3.55109 8.25 3.75C8.25 3.94891 8.17098 4.13968 8.03033 4.28033C7.88968 4.42098 7.69891 4.5 7.5 4.5C5.34375 4.5 5.25 5.59688 5.25 7.875C5.25 8.97188 5.25 10.1062 4.8 11.0344C4.6228 11.4067 4.36691 11.7362 4.05 12ZM22.5 11.25C20.3438 11.25 20.25 10.1531 20.25 7.875C20.25 6.77812 20.25 5.64375 19.8 4.71562C19.2469 3.57187 18.1406 3 16.5 3C16.3011 3 16.1103 3.07902 15.9697 3.21967C15.829 3.36032 15.75 3.55109 15.75 3.75C15.75 3.94891 15.829 4.13968 15.9697 4.28033C16.1103 4.42098 16.3011 4.5 16.5 4.5C18.6562 4.5 18.75 5.59688 18.75 7.875C18.75 8.97188 18.75 10.1062 19.2 11.0344C19.3772 11.4067 19.6331 11.7362 19.95 12C19.6331 12.2638 19.3772 12.5933 19.2 12.9656C18.75 13.8938 18.75 15.0281 18.75 16.125C18.75 18.4031 18.6562 19.5 16.5 19.5C16.3011 19.5 16.1103 19.579 15.9697 19.7197C15.829 19.8603 15.75 20.0511 15.75 20.25C15.75 20.4489 15.829 20.6397 15.9697 20.7803C16.1103 20.921 16.3011 21 16.5 21C18.1406 21 19.2469 20.4281 19.8 19.2844C20.25 18.3563 20.25 17.2219 20.25 16.125C20.25 13.8469 20.3438 12.75 22.5 12.75C22.6989 12.75 22.8897 12.671 23.0303 12.5303C23.171 12.3897 23.25 12.1989 23.25 12C23.25 11.8011 23.171 11.6103 23.0303 11.4697C22.8897 11.329 22.6989 11.25 22.5 11.25Z" fill="#F2F2F2"/>
</svg>
