<svg width="4378" height="1342" viewBox="0 0 4378 1342" fill="none" xmlns="http://www.w3.org/2000/svg">
<g filter="url(#filter0_i_1201_13)">
<path d="M1073.28 842.586C906.071 565.269 645.115 132.473 645.115 132.473L105 1186.82H998.645M998.645 1186.82V1133.71L1092.92 1186.82L998.645 1236V1186.82Z" stroke="#01B3FF" stroke-width="128.064" stroke-linecap="round"/>
</g>
<path d="M1425.6 468.446C1399.42 468.446 1375.2 464.191 1352.95 455.681C1331.02 446.844 1311.87 434.571 1295.51 418.861C1279.47 403.151 1266.87 384.659 1257.7 363.385C1248.87 342.111 1244.45 318.873 1244.45 293.672C1244.45 268.47 1248.87 245.233 1257.7 223.959C1266.87 202.685 1279.63 184.193 1296 168.483C1312.36 152.773 1331.51 140.663 1353.44 132.153C1375.69 123.316 1399.91 118.898 1426.1 118.898C1452.28 118.898 1476.17 122.989 1497.77 131.171C1519.7 139.354 1538.36 151.791 1553.74 168.483L1531.16 191.557C1516.76 177.156 1500.88 166.846 1483.54 160.628C1466.19 154.409 1447.53 151.3 1427.57 151.3C1406.29 151.3 1386.66 154.9 1368.66 162.101C1350.98 168.974 1335.44 178.956 1322.02 192.048C1308.93 204.812 1298.62 219.868 1291.09 237.214C1283.89 254.233 1280.29 273.052 1280.29 293.672C1280.29 313.964 1283.89 332.783 1291.09 350.13C1298.62 367.476 1308.93 382.695 1322.02 395.787C1335.44 408.551 1350.98 418.534 1368.66 425.734C1386.66 432.607 1406.13 436.044 1427.08 436.044C1446.71 436.044 1465.21 433.098 1482.55 427.207C1500.23 421.316 1516.43 411.333 1531.16 397.26L1551.78 424.752C1535.41 439.153 1516.26 450.117 1494.34 457.645C1472.41 464.845 1449.5 468.446 1425.6 468.446ZM1516.92 420.334V293.672H1551.78V424.752L1516.92 420.334ZM1793.04 468.446C1749.18 468.446 1714.65 455.845 1689.45 430.643C1664.25 405.442 1651.65 368.131 1651.65 318.71V121.844H1687.98V317.237C1687.98 357.821 1697.14 387.768 1715.47 407.078C1733.8 426.389 1759.66 436.044 1793.04 436.044C1826.75 436.044 1852.77 426.389 1871.1 407.078C1889.43 387.768 1898.59 357.821 1898.59 317.237V121.844H1933.94V318.71C1933.94 368.131 1921.34 405.442 1896.14 430.643C1871.26 455.845 1836.9 468.446 1793.04 468.446ZM2120.61 465.5V337.856L2128.95 360.439L1983.14 121.844H2021.93L2150.06 331.474H2129.44L2257.58 121.844H2293.91L2148.1 360.439L2156.45 337.856V465.5H2120.61ZM2478.74 465.5V121.844H2508.69L2745.81 420.334H2730.1V121.844H2765.94V465.5H2735.99L2499.36 167.01H2515.07V465.5H2478.74ZM2823.12 465.5L2980.22 121.844H3016.06L3173.16 465.5H3134.87L2990.53 142.954H3005.26L2860.92 465.5H2823.12ZM2884.98 373.695L2895.78 344.238H3095.59L3106.39 373.695H2884.98ZM3230.01 465.5V121.844H3259.95L3417.05 389.896H3401.34L3556.97 121.844H3586.92V465.5H3552.06V176.338H3560.41L3417.05 421.807H3399.87L3255.54 176.338H3264.86V465.5H3230.01ZM3731.29 275.507H3912.94V306.436H3731.29V275.507ZM3735.22 434.08H3941.91V465.5H3698.89V121.844H3934.54V153.264H3735.22V434.08ZM4027.3 465.5V121.844H4167.22C4203.88 121.844 4235.95 129.208 4263.44 143.936C4291.26 158.337 4312.86 178.465 4328.25 204.321C4343.63 230.177 4351.32 259.961 4351.32 293.672C4351.32 327.383 4343.63 357.166 4328.25 383.022C4312.86 408.879 4291.26 429.171 4263.44 443.899C4235.95 458.3 4203.88 465.5 4167.22 465.5H4027.3ZM4063.63 434.08H4165.26C4195.69 434.08 4222.04 428.189 4244.3 416.406C4266.88 404.296 4284.39 387.768 4296.83 366.822C4309.26 345.548 4315.48 321.164 4315.48 293.672C4315.48 265.852 4309.26 241.469 4296.83 220.522C4284.39 199.575 4266.88 183.211 4244.3 171.428C4222.04 159.319 4195.69 153.264 4165.26 153.264H4063.63V434.08Z" fill="#333333"/>
<path d="M1319.03 1226.5V611.794H1372.6L1796.74 1145.71H1768.64V611.794H1832.75V1226.5H1779.18L1355.91 692.584H1384.01V1226.5H1319.03ZM2033.38 1226.5V611.794H2283.66C2349.23 611.794 2406.6 624.967 2455.77 651.311C2505.54 677.07 2544.18 713.074 2571.69 759.324C2599.21 805.573 2612.96 858.847 2612.96 919.147C2612.96 979.447 2599.21 1032.72 2571.69 1078.97C2544.18 1125.22 2505.54 1161.52 2455.77 1187.86C2406.6 1213.62 2349.23 1226.5 2283.66 1226.5H2033.38ZM2098.37 1170.3H2280.14C2334.59 1170.3 2381.72 1159.76 2421.53 1138.68C2461.92 1117.02 2493.24 1087.46 2515.49 1049.99C2537.74 1011.94 2548.86 968.324 2548.86 919.147C2548.86 869.385 2537.74 825.77 2515.49 788.303C2493.24 750.835 2461.92 721.563 2421.53 700.488C2381.72 678.826 2334.59 667.996 2280.14 667.996H2098.37V1170.3ZM2758.89 1226.5V611.794H2988.96C3041.07 611.794 3085.85 620.283 3123.32 637.261C3160.79 653.653 3189.47 677.656 3209.38 709.269C3229.87 740.297 3240.11 778.058 3240.11 822.551C3240.11 865.873 3229.87 903.34 3209.38 934.954C3189.47 965.982 3160.79 989.985 3123.32 1006.96C3085.85 1023.35 3041.07 1031.55 2988.96 1031.55H2794.89L2823.87 1001.69V1226.5H2758.89ZM3178.64 1226.5L3020.58 1003.45H3090.83L3249.77 1226.5H3178.64ZM2823.87 1006.96L2794.89 976.227H2987.21C3048.68 976.227 3095.22 962.762 3126.83 935.832C3159.03 908.902 3175.13 871.142 3175.13 822.551C3175.13 773.374 3159.03 735.321 3126.83 708.391C3095.22 681.461 3048.68 667.996 2987.21 667.996H2794.89L2823.87 637.261V1006.96ZM3451.45 886.656H3776.36V941.979H3451.45V886.656ZM3458.47 1170.3H3828.17V1226.5H3393.49V611.794H3815V667.996H3458.47V1170.3Z" fill="#333333"/>
<defs>
<filter id="filter0_i_1201_13" x="-91.2205" y="0.916016" width="1318.44" height="1432.18" filterUnits="userSpaceOnUse" color-interpolation-filters="sRGB">
<feFlood flood-opacity="0" result="BackgroundImageFix"/>
<feBlend mode="normal" in="SourceGraphic" in2="BackgroundImageFix" result="shape"/>
<feColorMatrix in="SourceAlpha" type="matrix" values="0 0 0 0 0 0 0 0 0 0 0 0 0 0 0 0 0 0 127 0" result="hardAlpha"/>
<feOffset dx="-91.4741" dy="91.4741"/>
<feGaussianBlur stdDeviation="91.4741"/>
<feComposite in2="hardAlpha" operator="arithmetic" k2="-1" k3="1"/>
<feColorMatrix type="matrix" values="0 0 0 0 0 0 0 0 0 0 0 0 0 0 0 0 0 0 0.5 0"/>
<feBlend mode="normal" in2="shape" result="effect1_innerShadow_1201_13"/>
</filter>
</defs>
</svg>
