<svg width="24" height="24" viewBox="0 0 24 24" fill="none" xmlns="http://www.w3.org/2000/svg">
<path d="M20.5127 9.72062L13.0127 2.90499C12.7362 2.65202 12.375 2.51172 12.0002 2.51172C11.6254 2.51172 11.2642 2.65202 10.9877 2.90499L3.4877 9.72062C3.33414 9.8611 3.2115 10.032 3.12757 10.2225C3.04364 10.4129 3.00027 10.6187 3.0002 10.8269V19.4612C2.9941 19.8394 3.12761 20.2066 3.3752 20.4925C3.51572 20.6523 3.68882 20.7801 3.88287 20.8675C4.07692 20.9548 4.28741 20.9995 4.5002 20.9987H9.0002C9.19911 20.9987 9.38988 20.9197 9.53053 20.7791C9.67118 20.6384 9.7502 20.4477 9.7502 20.2487V15.7487C9.7502 15.5498 9.82922 15.3591 9.96987 15.2184C10.1105 15.0778 10.3013 14.9987 10.5002 14.9987H13.5002C13.6991 14.9987 13.8899 15.0778 14.0305 15.2184C14.1712 15.3591 14.2502 15.5498 14.2502 15.7487V20.2487C14.2502 20.4477 14.3292 20.6384 14.4699 20.7791C14.6105 20.9197 14.8013 20.9987 15.0002 20.9987H19.5002C19.749 21.0009 19.9942 20.9396 20.2127 20.8206C20.4504 20.6911 20.649 20.5001 20.7875 20.2676C20.9261 20.035 20.9995 19.7694 21.0002 19.4987V10.8269C21.0001 10.6187 20.9568 10.4129 20.8728 10.2225C20.7889 10.032 20.6663 9.8611 20.5127 9.72062Z" fill="#F2F2F2"/>
</svg>
