<svg width="1488" height="457" viewBox="0 0 1488 457" fill="none" xmlns="http://www.w3.org/2000/svg">
<g filter="url(#filter0_i_1484_200)">
<path d="M364.582 286.45C307.771 192.228 219.108 45.1797 219.108 45.1797L35.5967 403.409H339.224M339.224 403.409V385.364L371.255 403.409L339.224 420.117V403.409Z" stroke="#01B3FF" stroke-width="43.5113" stroke-linecap="round"/>
</g>
<path d="M484.289 158.946C475.393 158.946 467.164 157.501 459.602 154.609C452.152 151.607 445.647 147.437 440.087 142.099C434.638 136.761 430.356 130.479 427.243 123.25C424.24 116.022 422.739 108.127 422.739 99.5645C422.739 91.002 424.24 83.1066 427.243 75.8785C430.356 68.6504 434.693 62.3675 440.253 57.0299C445.813 51.6922 452.319 47.5777 459.769 44.6865C467.331 41.684 475.56 40.1828 484.456 40.1828C493.352 40.1828 501.47 41.5728 508.809 44.3529C516.26 47.1329 522.598 51.3586 527.825 57.0299L520.152 64.8696C515.259 59.9767 509.866 56.4739 503.972 54.361C498.078 52.2482 491.74 51.1918 484.956 51.1918C477.728 51.1918 471.056 52.415 464.94 54.8614C458.935 57.1967 453.653 60.5883 449.094 65.0364C444.646 69.3732 441.143 74.4885 438.585 80.3822C436.139 86.1647 434.916 92.5588 434.916 99.5645C434.916 106.459 436.139 112.853 438.585 118.747C441.143 124.64 444.646 129.811 449.094 134.259C453.653 138.596 458.935 141.988 464.94 144.434C471.056 146.77 477.673 147.937 484.79 147.937C491.462 147.937 497.745 146.936 503.638 144.935C509.643 142.933 515.148 139.541 520.152 134.76L527.157 144.101C521.597 148.994 515.092 152.719 507.642 155.276C500.191 157.723 492.407 158.946 484.289 158.946ZM515.314 142.599V99.5645H527.157V144.101L515.314 142.599ZM609.13 158.946C594.229 158.946 582.498 154.665 573.935 146.102C565.373 137.54 561.091 124.863 561.091 108.071V41.1836H573.435V107.571C573.435 121.36 576.548 131.535 582.776 138.096C589.003 144.657 597.788 147.937 609.13 147.937C620.584 147.937 629.425 144.657 635.652 138.096C641.879 131.535 644.993 121.36 644.993 107.571V41.1836H657.003V108.071C657.003 124.863 652.721 137.54 644.159 146.102C635.708 154.665 624.031 158.946 609.13 158.946ZM720.425 157.945V114.577L723.261 122.25L673.721 41.1836H686.898L730.434 112.408H723.428L766.963 41.1836H779.307L729.766 122.25L732.602 114.577V157.945H720.425ZM842.105 157.945V41.1836H852.28L932.846 142.599H927.508V41.1836H939.685V157.945H929.51L849.111 56.5295H854.448V157.945H842.105ZM959.113 157.945L1012.49 41.1836H1024.67L1078.04 157.945H1065.03L1015.99 48.3561H1021L971.957 157.945H959.113ZM980.13 126.753L983.8 116.745H1051.69L1055.36 126.753H980.13ZM1097.36 157.945V41.1836H1107.53L1160.91 132.258H1155.57L1208.45 41.1836H1218.62V157.945H1206.78V59.6987H1209.62L1160.91 143.1H1155.07L1106.03 59.6987H1109.2V157.945H1097.36ZM1267.68 93.3928H1329.39V103.901H1267.68V93.3928ZM1269.01 147.27H1339.23V157.945H1256.67V41.1836H1336.73V51.859H1269.01V147.27ZM1368.25 157.945V41.1836H1415.79C1428.24 41.1836 1439.14 43.6857 1448.48 48.6897C1457.93 53.5826 1465.27 60.4215 1470.5 69.2064C1475.73 77.9914 1478.34 88.1107 1478.34 99.5645C1478.34 111.018 1475.73 121.138 1470.5 129.923C1465.27 138.707 1457.93 145.602 1448.48 150.606C1439.14 155.499 1428.24 157.945 1415.79 157.945H1368.25ZM1380.59 147.27H1415.12C1425.46 147.27 1434.41 145.268 1441.98 141.265C1449.65 137.151 1455.6 131.535 1459.82 124.418C1464.05 117.19 1466.16 108.905 1466.16 99.5645C1466.16 90.1123 1464.05 81.8278 1459.82 74.7109C1455.6 67.594 1449.65 62.0339 1441.98 58.0307C1434.41 53.9162 1425.46 51.859 1415.12 51.859H1380.59V147.27Z" fill="white"/>
<path d="M448.079 417.094V208.24H466.279L610.388 389.644H600.841V208.24H622.621V417.094H604.421L460.61 235.689H470.158V417.094H448.079ZM690.79 417.094V208.24H775.824C798.102 208.24 817.595 212.715 834.303 221.666C851.21 230.418 864.338 242.651 873.687 258.365C883.036 274.078 887.71 292.179 887.71 312.667C887.71 333.154 883.036 351.255 873.687 366.969C864.338 382.683 851.21 395.015 834.303 403.966C817.595 412.718 798.102 417.094 775.824 417.094H690.79ZM712.869 397.999H774.63C793.129 397.999 809.141 394.418 822.667 387.257C836.391 379.898 847.033 369.853 854.592 357.123C862.15 344.194 865.929 329.375 865.929 312.667C865.929 295.759 862.15 280.941 854.592 268.211C847.033 255.48 836.391 245.535 822.667 238.374C809.141 231.015 793.129 227.335 774.63 227.335H712.869V397.999ZM937.289 417.094V208.24H1015.46C1033.16 208.24 1048.38 211.124 1061.11 216.892C1073.84 222.462 1083.59 230.617 1090.35 241.358C1097.31 251.9 1100.79 264.73 1100.79 279.847C1100.79 294.566 1097.31 307.296 1090.35 318.037C1083.59 328.579 1073.84 336.735 1061.11 342.503C1048.38 348.072 1033.16 350.857 1015.46 350.857H949.522L959.368 340.713V417.094H937.289ZM1079.91 417.094L1026.2 341.31H1050.07L1104.07 417.094H1079.91ZM959.368 342.503L949.522 332.06H1014.86C1035.75 332.06 1051.56 327.485 1062.3 318.336C1073.24 309.186 1078.71 296.356 1078.71 279.847C1078.71 263.138 1073.24 250.209 1062.3 241.059C1051.56 231.91 1035.75 227.335 1014.86 227.335H949.522L959.368 216.892V342.503ZM1172.6 301.627H1282.99V320.424H1172.6V301.627ZM1174.98 397.999H1300.59V417.094H1152.9V208.24H1296.12V227.335H1174.98V397.999Z" fill="white"/>
<defs>
<filter id="filter0_i_1484_200" x="-31.0717" y="0.480469" width="447.956" height="486.603" filterUnits="userSpaceOnUse" color-interpolation-filters="sRGB">
<feFlood flood-opacity="0" result="BackgroundImageFix"/>
<feBlend mode="normal" in="SourceGraphic" in2="BackgroundImageFix" result="shape"/>
<feColorMatrix in="SourceAlpha" type="matrix" values="0 0 0 0 0 0 0 0 0 0 0 0 0 0 0 0 0 0 127 0" result="hardAlpha"/>
<feOffset dx="-31.0795" dy="31.0795"/>
<feGaussianBlur stdDeviation="31.0795"/>
<feComposite in2="hardAlpha" operator="arithmetic" k2="-1" k3="1"/>
<feColorMatrix type="matrix" values="0 0 0 0 0 0 0 0 0 0 0 0 0 0 0 0 0 0 0.5 0"/>
<feBlend mode="normal" in2="shape" result="effect1_innerShadow_1484_200"/>
</filter>
</defs>
</svg>
