<svg width="14" height="14" viewBox="0 0 14 14" fill="none" xmlns="http://www.w3.org/2000/svg">
<path fill-rule="evenodd" clip-rule="evenodd" d="M12.2724 8.4621L12.2723 8.46277C12.2723 8.46277 11.8811 9.86705 10.8429 10.8904C10.8429 10.8904 9.8043 11.914 8.3939 12.2846C8.3939 12.2846 6.98352 12.6552 5.57585 12.2744C5.57585 12.2744 4.16819 11.8936 3.13704 10.8624C3.13704 10.8624 2.10589 9.83128 1.72506 8.42362C1.72506 8.42362 1.34423 7.01595 1.71485 5.60557C1.71485 5.60557 2.08546 4.19518 3.10911 3.15658C3.10911 3.15658 4.13276 2.11798 5.53763 1.72696C5.64941 1.69585 5.76897 1.71041 5.87002 1.76746C5.97106 1.8245 6.0453 1.91934 6.07642 2.03113C6.09786 2.10815 6.09778 2.18958 6.07619 2.26656C6.07619 2.26656 5.74039 3.46407 6.05531 4.66723C6.05531 4.66723 6.37023 5.87039 7.24966 6.74981C7.24966 6.74981 8.12908 7.62924 9.33224 7.94416C9.33224 7.94416 10.5354 8.25908 11.7329 7.92328C11.8075 7.90237 11.8863 7.90163 11.9612 7.92113L11.9683 7.92306C12.1157 7.96408 12.231 8.0791 12.2723 8.22641C12.2932 8.30097 12.2939 8.37975 12.2744 8.4547L12.2724 8.4621ZM10.2287 10.2672C10.2287 10.2672 10.8305 9.67403 11.1734 8.92852C11.1734 8.92852 10.1438 9.06106 9.11068 8.79064C9.11068 8.79064 7.67807 8.41566 6.63094 7.36853C6.63094 7.36853 5.5838 6.3214 5.20883 4.88879C5.20883 4.88879 4.93841 3.85566 5.07095 2.82603C5.07095 2.82603 4.32544 3.169 3.7323 3.7708C3.7323 3.7708 2.87243 4.64322 2.56112 5.82795C2.56112 5.82795 2.2498 7.01267 2.56969 8.19511C2.56969 8.19511 2.88959 9.37754 3.75576 10.2437C3.75576 10.2437 4.62193 11.1099 5.80436 11.4298C5.80436 11.4298 6.9868 11.7497 8.17152 11.4384C8.17152 11.4384 9.35625 11.127 10.2287 10.2672Z" fill="#1C1C1C"/>
</svg>
