<svg width="24" height="25" viewBox="0 0 24 25" fill="none" xmlns="http://www.w3.org/2000/svg">
<path d="M21.3473 5.12954L16.4348 22.5577C16.3528 22.8528 16.182 23.1155 15.9455 23.3101C15.709 23.5046 15.4183 23.6217 15.1129 23.6452H14.9816C14.6991 23.6445 14.4225 23.5641 14.1837 23.4132C13.9448 23.2623 13.7535 23.0469 13.6316 22.792L10.2848 15.7233C10.2519 15.6523 10.2415 15.573 10.2549 15.4959C10.2683 15.4189 10.3049 15.3478 10.3598 15.292L15.1691 10.4827C15.2444 10.4144 15.3051 10.3316 15.3474 10.2393C15.3897 10.1469 15.4128 10.0469 15.4153 9.94534C15.4178 9.84377 15.3997 9.74275 15.362 9.64842C15.3242 9.55408 15.2677 9.46839 15.1959 9.39655C15.124 9.32471 15.0384 9.26821 14.944 9.23049C14.8497 9.19277 14.7487 9.1746 14.6471 9.1771C14.5455 9.17961 14.4455 9.20272 14.3532 9.24504C14.2608 9.28735 14.178 9.348 14.1098 9.42329L9.3004 14.242C9.24468 14.2969 9.17355 14.3335 9.09649 14.3469C9.01944 14.3603 8.94012 14.3499 8.86915 14.317L1.8379 10.9889C1.5627 10.8589 1.33166 10.6511 1.17336 10.3912C1.01506 10.1312 0.936455 9.83057 0.947273 9.52641C0.963867 9.21325 1.07881 8.91329 1.27574 8.66923C1.47267 8.42517 1.74156 8.24944 2.04415 8.16704L19.5098 3.24516C19.8153 3.15792 20.1405 3.16993 20.4388 3.27944C20.737 3.38896 20.9927 3.59033 21.1691 3.85454C21.2875 4.04229 21.3646 4.25307 21.3953 4.47288C21.426 4.6927 21.4097 4.91653 21.3473 5.12954Z" fill="#F2F2F2"/>
</svg>
