<svg width="15" height="14" viewBox="0 0 15 14" fill="none" xmlns="http://www.w3.org/2000/svg">
<path fill-rule="evenodd" clip-rule="evenodd" d="M7.41699 3.28125C7.41699 3.28125 8.20479 3.28125 8.92495 3.57367C8.92495 3.57367 9.6202 3.85597 10.1561 4.37045C10.1561 4.37045 10.692 4.88492 10.9861 5.55236C10.9861 5.55236 11.2907 6.24371 11.2907 7C11.2907 7 11.2907 7.75629 10.9861 8.44764C10.9861 8.44764 10.692 9.11508 10.1561 9.62955C10.1561 9.62955 9.6202 10.144 8.92495 10.4263C8.92495 10.4263 8.20479 10.7188 7.41699 10.7188C7.41699 10.7188 6.62919 10.7188 5.90903 10.4263C5.90903 10.4263 5.21379 10.144 4.67787 9.62955C4.67787 9.62955 4.14196 9.11508 3.8479 8.44764C3.8479 8.44764 3.54329 7.75629 3.54329 7C3.54329 7 3.54329 6.24371 3.8479 5.55236C3.8479 5.55236 4.14196 4.88492 4.67787 4.37045C4.67787 4.37045 5.21379 3.85597 5.90903 3.57367C5.90903 3.57367 6.62919 3.28125 7.41699 3.28125ZM7.41699 4.15625C7.41699 4.15625 6.18999 4.15625 5.32237 4.98917C5.32237 4.98917 4.45475 5.82208 4.45475 7C4.45475 7 4.45475 8.17792 5.32237 9.01084C5.32237 9.01084 6.18999 9.84375 7.41699 9.84375C7.41699 9.84375 8.64399 9.84375 9.51161 9.01084C9.51161 9.01084 10.3792 8.17792 10.3792 7C10.3792 7 10.3792 5.82208 9.51161 4.98917C9.51161 4.98917 8.64399 4.15625 7.41699 4.15625Z" fill="#F2F2F2"/>
<path d="M7.87272 1.96875V0.875C7.87272 0.633375 7.66868 0.4375 7.41699 0.4375C7.1653 0.4375 6.96126 0.633375 6.96126 0.875V1.96875C6.96126 2.21037 7.1653 2.40625 7.41699 2.40625C7.66868 2.40625 7.87272 2.21037 7.87272 1.96875Z" fill="#F2F2F2"/>
<path d="M3.22751 2.35938C3.14205 2.27733 3.02613 2.23124 2.90526 2.23124C2.7844 2.23124 2.66848 2.27733 2.58301 2.35938C2.49755 2.44143 2.44953 2.55271 2.44953 2.66874C2.44953 2.78477 2.49755 2.89605 2.58301 2.9781L3.38624 3.74919C3.4717 3.83124 3.58762 3.87733 3.70848 3.87733C3.82935 3.87733 3.94527 3.83124 4.03073 3.74919C4.1162 3.66715 4.16421 3.55587 4.16421 3.43983C4.16421 3.3238 4.1162 3.21252 4.03073 3.13047L3.22751 2.35938Z" fill="#F2F2F2"/>
<path d="M2.17611 6.5625H1.03678C0.785092 6.5625 0.581055 6.75838 0.581055 7C0.581055 7.24162 0.785092 7.4375 1.03678 7.4375H2.17611C2.4278 7.4375 2.63184 7.24162 2.63184 7C2.63184 6.75838 2.4278 6.5625 2.17611 6.5625Z" fill="#F2F2F2"/>
<path d="M2.58301 11.0219C2.49755 11.1039 2.44953 11.2152 2.44953 11.3312C2.44953 11.3388 2.44974 11.3463 2.45014 11.3539C2.45598 11.4619 2.50331 11.5641 2.58301 11.6406C2.66848 11.7226 2.7844 11.7687 2.90526 11.7687C3.02613 11.7687 3.14205 11.7226 3.22751 11.6406L4.03073 10.8695C4.1162 10.7874 4.16421 10.6762 4.16421 10.5601C4.16421 10.4441 4.1162 10.3328 4.03073 10.2508C3.94527 10.1687 3.82935 10.1226 3.70849 10.1226C3.70062 10.1226 3.69276 10.1228 3.6849 10.1232C3.57234 10.1288 3.46594 10.1743 3.38624 10.2508L2.58301 11.0219Z" fill="#F2F2F2"/>
<path d="M6.96126 12.0312V13.125C6.96126 13.3666 7.1653 13.5625 7.41699 13.5625C7.66868 13.5625 7.87272 13.3666 7.87272 13.125V12.0312C7.87272 11.7896 7.66868 11.5938 7.41699 11.5938C7.1653 11.5938 6.96126 11.7896 6.96126 12.0312Z" fill="#F2F2F2"/>
<path d="M10.8033 10.8695L11.6064 11.6406C11.6919 11.7226 11.8078 11.7687 11.9287 11.7687C12.0496 11.7687 12.1655 11.7226 12.2509 11.6406C12.3364 11.5585 12.3844 11.4473 12.3844 11.3312C12.3844 11.2152 12.3364 11.1039 12.2509 11.0219L11.4478 10.2508C11.3622 10.1687 11.2463 10.1226 11.1255 10.1226C11.0046 10.1226 10.8887 10.1687 10.8032 10.2508C10.7177 10.3328 10.6697 10.4441 10.6697 10.5601C10.6697 10.6762 10.7178 10.7874 10.8033 10.8695Z" fill="#F2F2F2"/>
<path d="M12.6579 7.4375H13.7972C14.0489 7.4375 14.2529 7.24162 14.2529 7C14.2529 6.75838 14.0489 6.5625 13.7972 6.5625H12.6579C12.4062 6.5625 12.2021 6.75838 12.2021 7C12.2021 7.24162 12.4062 7.4375 12.6579 7.4375Z" fill="#F2F2F2"/>
<path d="M12.2509 2.9781C12.3364 2.89605 12.3844 2.78477 12.3844 2.66874C12.3844 2.55271 12.3364 2.44143 12.2509 2.35938C12.1655 2.27733 12.0496 2.23124 11.9287 2.23124C11.8078 2.23124 11.6919 2.27733 11.6064 2.35938L10.8033 3.13042C10.7178 3.21252 10.6697 3.3238 10.6697 3.43983C10.6697 3.55587 10.7178 3.66715 10.8032 3.74919C10.8887 3.83124 11.0046 3.87733 11.1255 3.87733C11.2463 3.87733 11.3622 3.83124 11.4477 3.74919L12.2509 2.9781Z" fill="#F2F2F2"/>
</svg>
