<svg width="56" height="52" viewBox="0 0 56 52" fill="none" xmlns="http://www.w3.org/2000/svg">
<mask id="mask0" mask-type="alpha" maskUnits="userSpaceOnUse" x="0" y="0" width="56" height="52">
<rect width="56" height="52" fill="#C4C4C4"/>
</mask>
<g mask="url(#mask0)">
<path d="M2 26.0324C2 40.3735 13.8624 52.2206 28.2222 52.2206C42.582 52.2206 54.4444 40.3735 54.4444 26.0324C54.4444 11.6912 42.582 0 28.2222 0C13.8624 0 2 11.6912 2 26.0324ZM37.8995 38.1912C31.8122 34.45 24.0079 33.5147 14.955 35.5412C12.7698 35.8529 12.4577 32.7353 14.3307 32.4235C24.3201 30.0853 32.7487 31.1765 39.6164 35.3853C41.3333 36.4765 39.6164 39.1265 37.8995 38.1912ZM40.5529 31.1765C33.5291 26.8118 22.7593 25.5647 14.4868 28.0588C11.8333 28.8382 10.8968 24.7853 13.3942 24.1618C22.9153 21.3559 34.6217 22.7588 42.7381 27.7471C44.9233 29.15 42.7381 32.5794 40.5529 31.1765ZM13.2381 20.1088C10.5847 21.0441 8.86773 16.5235 11.8333 15.4324C21.0423 12.6265 36.6508 13.0941 46.328 18.8618C48.9815 20.2647 46.4841 24.6294 43.6746 23.0706C35.246 18.0824 21.1984 17.6147 13.2381 20.1088ZM72.3942 34.2941C69.7407 34.2941 67.2434 33.3588 65.0582 31.1765C64.9021 31.1765 64.9021 31.3324 64.9021 31.3324L62.4048 34.2941C62.2487 34.45 62.2487 34.6059 62.4048 34.7618C65.2143 37.2559 68.6482 38.5029 72.3942 38.5029C77.7011 38.5029 80.9788 35.5412 80.9788 31.1765C80.9788 27.4353 78.6376 25.4088 73.1746 24.0059C68.6482 22.9147 67.8677 22.1353 67.8677 20.5765C67.8677 19.0176 69.4286 18.0824 71.4577 18.0824C73.4868 18.0824 75.3598 18.8618 77.545 20.4206C77.545 20.4206 77.7011 20.5765 77.8572 20.5765C78.0132 20.5765 78.0132 20.4206 78.0132 20.4206L80.1984 17.3029C80.3545 17.1471 80.3545 17.1471 80.1984 16.9912C77.7011 14.9647 74.7355 13.8735 71.4577 13.8735C66.6191 13.8735 63.1852 16.8353 63.1852 21.0441C63.1852 25.5647 66.3069 26.9676 71.3016 28.2147C75.672 29.15 76.2963 30.0853 76.2963 31.6441C76.2963 33.3588 74.7355 34.2941 72.3942 34.2941ZM87.2222 22.2912V20.2647C87.2222 20.1088 87.0661 19.9529 86.9101 19.9529H82.8519C82.6958 19.9529 82.5397 20.1088 82.5397 20.2647V43.1794C82.5397 43.3353 82.6958 43.4912 82.8519 43.4912H86.9101C87.0661 43.4912 87.2222 43.3353 87.2222 43.1794V36.0088C88.7831 37.7235 90.5 38.5029 92.8413 38.5029C97.0556 38.5029 101.27 35.2294 101.27 28.9941C101.27 22.7588 97.0556 19.6412 92.8413 19.6412C90.5 19.6412 88.7831 20.4206 87.2222 22.2912ZM91.9048 34.45C89.0952 34.45 87.0661 32.1118 87.0661 28.9941C87.0661 25.8765 89.0952 23.6941 91.9048 23.6941C94.7143 23.6941 96.5873 25.8765 96.5873 28.9941C96.5873 32.1118 94.7143 34.45 91.9048 34.45ZM102.519 29.15C102.519 34.45 106.733 38.5029 112.196 38.5029C117.659 38.5029 121.873 34.2941 121.873 28.9941C121.873 23.6941 117.815 19.6412 112.352 19.6412C106.889 19.6412 102.519 23.85 102.519 29.15ZM107.201 28.9941C107.201 25.8765 109.23 23.6941 112.196 23.6941C115.161 23.6941 117.347 26.0324 117.347 29.15C117.347 32.2676 115.317 34.45 112.352 34.45C109.386 34.45 107.201 32.1118 107.201 28.9941ZM129.053 19.9529V15.4324C129.053 15.2765 129.053 15.1206 128.897 15.1206H124.839C124.683 15.1206 124.526 15.2765 124.526 15.4324V19.9529H122.497C122.341 19.9529 122.185 20.1088 122.185 20.2647V23.6941C122.185 23.85 122.341 24.0059 122.497 24.0059H124.526V33.0471C124.526 36.6324 126.243 38.5029 129.833 38.5029C131.238 38.5029 132.643 38.1912 133.735 37.5676C133.892 37.5676 133.892 37.4118 133.892 37.2559V33.9824C133.892 33.8265 133.892 33.6706 133.735 33.6706H133.423C132.643 34.1382 131.706 34.2941 130.926 34.2941C129.677 34.2941 129.053 33.6706 129.053 32.4235V24.0059H133.735C133.892 24.0059 134.048 23.85 134.048 23.6941V20.2647C134.048 20.1088 133.892 19.9529 133.735 19.9529H129.053ZM149.188 19.4853C149.188 17.7706 149.812 17.1471 151.217 17.1471C151.997 17.1471 152.778 17.1471 153.558 17.4588H153.714C153.714 17.4588 153.87 17.3029 153.87 17.1471V13.8735C153.87 13.7176 153.87 13.5618 153.714 13.5618C152.934 13.25 151.841 13.0941 150.28 13.0941C146.534 13.0941 144.661 15.2765 144.661 19.1735V19.9529H142.632C142.476 19.9529 142.32 20.1088 142.32 20.2647V23.6941C142.32 23.85 142.476 24.0059 142.632 24.0059H144.661V37.8794C144.661 38.0353 144.817 38.1912 144.974 38.1912H149.032C149.188 38.1912 149.188 38.0353 149.188 37.8794V24.0059H153.09L158.865 37.8794C158.241 39.2824 157.616 39.5941 156.68 39.5941C155.899 39.5941 155.119 39.4382 154.339 38.9706H154.183L154.026 39.1265L152.622 42.0882C152.622 42.2441 152.622 42.5559 152.778 42.5559C154.183 43.3353 155.431 43.6471 156.992 43.6471C159.958 43.6471 161.675 42.2441 163.079 38.5029L170.103 20.4206V20.1088C170.103 19.9529 169.947 19.9529 169.791 19.9529H165.577C165.421 19.9529 165.421 20.1088 165.421 20.2647L161.05 32.4235L156.368 20.2647C156.368 20.1088 156.212 19.9529 156.056 19.9529H149.188V19.4853ZM136.233 19.9529C136.077 19.9529 135.921 20.1088 135.921 20.2647V37.8794C135.921 38.0353 136.077 38.1912 136.233 38.1912H140.291C140.447 38.1912 140.447 38.0353 140.447 37.8794V20.2647C140.447 20.1088 140.447 19.9529 140.291 19.9529H136.233ZM135.296 14.8088C135.296 16.3676 136.701 17.7706 138.262 17.7706C139.823 17.7706 141.071 16.3676 141.071 14.8088C141.071 13.25 139.823 12.0029 138.262 12.0029C136.701 12.0029 135.296 13.25 135.296 14.8088ZM173.537 25.5647C175.098 25.5647 176.503 24.3176 176.503 22.7588C176.503 21.2 175.098 19.9529 173.537 19.9529C171.976 19.9529 170.728 21.2 170.728 22.7588C170.728 24.3176 171.976 25.5647 173.537 25.5647ZM173.537 20.2647C174.942 20.2647 176.19 21.3559 176.19 22.7588C176.19 24.1618 174.942 25.2529 173.537 25.2529C172.132 25.2529 171.04 24.1618 171.04 22.7588C171.04 21.3559 172.132 20.2647 173.537 20.2647ZM174.161 23.0706C174.63 22.9147 174.942 22.6029 174.942 22.1353C174.942 21.5118 174.317 21.2 173.693 21.2H172.444V24.1618H173.069V23.2265H173.693L174.317 24.1618H175.098L174.161 23.0706ZM173.693 21.6676C174.005 21.6676 174.317 21.8235 174.317 22.1353C174.317 22.4471 174.005 22.6029 173.693 22.6029H173.069V21.6676H173.693Z" fill="white"/>
</g>
</svg>
